<svg width="16" height="19" viewBox="0 0 16 19" fill="none" xmlns="http://www.w3.org/2000/svg">
<path d="M3.2 16.3387L1.36 18.6874C1.10667 19.0107 0.816534 19.0833 0.489601 18.9049C0.162668 18.7265 -0.00053203 18.4072 1.30293e-06 17.947V2.04234C1.30293e-06 1.48069 0.156801 1.00006 0.470401 0.600447C0.784001 0.20083 1.16053 0.000680779 1.6 0H14.4C14.84 0 15.2168 0.200149 15.5304 0.600447C15.844 1.00074 16.0005 1.48137 16 2.04234V14.2964C16 14.858 15.8435 15.339 15.5304 15.7393C15.2173 16.1396 14.8405 16.3394 14.4 16.3387H3.2ZM4 12.254H8.8C9.02667 12.254 9.2168 12.156 9.3704 11.9599C9.524 11.7639 9.60053 11.5215 9.6 11.2329C9.59947 10.9442 9.52267 10.7018 9.3696 10.5058C9.21653 10.3097 9.02667 10.2117 8.8 10.2117H4C3.77333 10.2117 3.58347 10.3097 3.4304 10.5058C3.27733 10.7018 3.20053 10.9442 3.2 11.2329C3.19947 11.5215 3.27627 11.7642 3.4304 11.9609C3.58453 12.1577 3.7744 12.2554 4 12.254ZM4 9.19051H12C12.2267 9.19051 12.4168 9.09248 12.5704 8.89642C12.724 8.70035 12.8005 8.458 12.8 8.16935C12.7995 7.8807 12.7227 7.63834 12.5696 7.44227C12.4165 7.24621 12.2267 7.14818 12 7.14818H4C3.77333 7.14818 3.58347 7.24621 3.4304 7.44227C3.27733 7.63834 3.20053 7.8807 3.2 8.16935C3.19947 8.458 3.27627 8.70069 3.4304 8.89744C3.58453 9.09418 3.7744 9.19188 4 9.19051ZM4 6.12701H12C12.2267 6.12701 12.4168 6.02898 12.5704 5.83291C12.724 5.63685 12.8005 5.39449 12.8 5.10584C12.7995 4.81719 12.7227 4.57483 12.5696 4.37877C12.4165 4.18271 12.2267 4.08467 12 4.08467H4C3.77333 4.08467 3.58347 4.18271 3.4304 4.37877C3.27733 4.57483 3.20053 4.81719 3.2 5.10584C3.19947 5.39449 3.27627 5.63719 3.4304 5.83393C3.58453 6.03068 3.7744 6.12837 4 6.12701Z" fill="#F9BC60"/>
</svg>
