<svg width="128" height="128" viewBox="0 0 128 128" fill="none" xmlns="http://www.w3.org/2000/svg">
<g clip-path="url(#clip0_49_5274)">
<rect width="128" height="128" fill="#FF5630"/>
<mask id="mask0_49_5274" style="mask-type:alpha" maskUnits="userSpaceOnUse" x="0" y="0" width="128" height="128">
<path d="M128 0H0V128H128V0Z" fill="white"/>
</mask>
<g mask="url(#mask0_49_5274)">
<path d="M131.3 45.7C129.5 39.5 132.7 33.7 129.2 28.5H37.2C33.5 28.5 30.5 31.5 30.5 35.2V45.7H131.3Z" fill="#EBF2F9"/>
<path d="M42.6 40.2998C44.2568 40.2998 45.6 38.9567 45.6 37.2998C45.6 35.643 44.2568 34.2998 42.6 34.2998C40.9431 34.2998 39.6 35.643 39.6 37.2998C39.6 38.9567 40.9431 40.2998 42.6 40.2998Z" fill="#FF5630"/>
<path d="M51.2 40.2998C52.8569 40.2998 54.2 38.9567 54.2 37.2998C54.2 35.643 52.8569 34.2998 51.2 34.2998C49.5432 34.2998 48.2 35.643 48.2 37.2998C48.2 38.9567 49.5432 40.2998 51.2 40.2998Z" fill="#FFC400"/>
<path d="M59.7 40.2998C61.3569 40.2998 62.7 38.9567 62.7 37.2998C62.7 35.643 61.3569 34.2998 59.7 34.2998C58.0432 34.2998 56.7 35.643 56.7 37.2998C56.7 38.9567 58.0432 40.2998 59.7 40.2998Z" fill="#00B8D9"/>
<path d="M129.9 128C129.9 128 131.9 51.3004 130.1 45.4004H50.7H48.7H41.5H39.5H32.5H30.5V133.3C37.5 138 129.9 128 129.9 128Z" fill="#253858"/>
<path d="M79.9 68.2002H43.6C41.4 68.2002 39.6 66.4002 39.6 64.2002C39.6 62.0002 41.4 60.2002 43.6 60.2002H80C82.2 60.2002 84 62.0002 84 64.2002C83.9 66.4002 82.1 68.2002 79.9 68.2002Z" fill="#EBF2F9"/>
<path d="M97.4 68.2002H93.7C91.5 68.2002 89.7 66.4002 89.7 64.2002C89.7 62.0002 91.5 60.2002 93.7 60.2002H97.4C99.6 60.2002 101.4 62.0002 101.4 64.2002C101.4 66.4002 99.6 68.2002 97.4 68.2002Z" fill="#4C9AFF"/>
<path d="M55.8 85.7002H43.6C41.4 85.7002 39.6 83.9002 39.6 81.7002C39.6 79.5002 41.4 77.7002 43.6 77.7002H55.8C58 77.7002 59.8 79.5002 59.8 81.7002C59.7 83.9002 57.9 85.7002 55.8 85.7002Z" fill="#FF5630"/>
<path d="M67.5 103.2H43.5C41.3 103.2 39.5 101.4 39.5 99.2002C39.5 97.0002 41.3 95.2002 43.5 95.2002H67.5C69.7 95.2002 71.5 97.0002 71.5 99.2002C71.5 101.4 69.7 103.2 67.5 103.2Z" fill="#EBF2F9"/>
<path d="M84.1 103.2H81.5C79.3 103.2 77.5 101.4 77.5 99.2002C77.5 97.0002 79.3 95.2002 81.5 95.2002H84.1C86.3 95.2002 88.1 97.0002 88.1 99.2002C88.1 101.4 86.3 103.2 84.1 103.2Z" fill="#FF4E4A"/>
<path d="M106.4 85.7002H69.7C67.5 85.7002 65.7 83.9002 65.7 81.7002C65.7 79.5002 67.5 77.7002 69.7 77.7002H106.3C108.5 77.7002 110.3 79.5002 110.3 81.7002C110.4 83.9002 108.6 85.7002 106.4 85.7002Z" fill="#00B8D9"/>
</g>
</g>
<defs>
<clipPath id="clip0_49_5274">
<rect width="128" height="128" fill="white"/>
</clipPath>
</defs>
</svg>
