<svg width="128" height="128" viewBox="0 0 128 128" fill="none" xmlns="http://www.w3.org/2000/svg">
<g clip-path="url(#clip0_49_5245)">
<mask id="mask0_49_5245" style="mask-type:alpha" maskUnits="userSpaceOnUse" x="0" y="0" width="128" height="128">
<path d="M128 0H0V128H128V0Z" fill="white"/>
</mask>
<g mask="url(#mask0_49_5245)">
<path d="M128 0H0V128H128V0Z" fill="#FFC400"/>
<path d="M64 127.715C99.2827 127.715 127.885 99.113 127.885 63.8303C127.885 28.5476 99.2827 -0.0546875 64 -0.0546875C28.7173 -0.0546875 0.11499 28.5476 0.11499 63.8303C0.11499 99.113 28.7173 127.715 64 127.715Z" fill="#FFC400"/>
<path d="M42.242 111.759C39.888 111.759 37.962 109.833 37.962 107.479V22.1687C37.962 19.8147 39.888 17.8887 42.242 17.8887C44.596 17.8887 46.522 19.8147 46.522 22.1687V107.479C46.522 109.833 44.596 111.759 42.242 111.759Z" fill="#2A5083"/>
<path d="M85.758 111.759C83.404 111.759 81.478 109.833 81.478 107.479V22.1687C81.478 19.8147 83.404 17.8887 85.758 17.8887C88.112 17.8887 90.038 19.8147 90.038 22.1687V107.479C90.038 109.833 88.112 111.759 85.758 111.759Z" fill="#2A5083"/>
<path d="M37.962 97.9963V95.8683C37.962 94.0993 39.409 92.6523 41.178 92.6523H86.823C88.592 92.6523 90.039 94.0993 90.039 95.8683V97.9963C90.039 99.7653 88.592 101.212 86.823 101.212H41.178C39.409 101.211 37.962 99.7643 37.962 97.9963Z" fill="#2A5083"/>
<path d="M102.938 31.115C102.714 28.274 100.343 26.082 97.493 26.082H71.283H56.717H30.508C27.658 26.082 25.287 28.273 25.063 31.115L21.373 77.849C21.122 81.025 23.632 83.741 26.818 83.741H56.717H71.283H101.181C104.367 83.741 106.877 81.025 106.626 77.849L102.938 31.115Z" fill="white"/>
<path d="M32.879 75.4239H95.54C97.911 75.4239 99.099 72.5569 97.422 70.8799L84.381 57.8389C83.359 56.8169 81.709 56.7969 80.663 57.7939L71.624 66.4019C70.6 67.3769 68.992 67.3819 67.963 66.4119L50.668 50.1189C49.65 49.1599 48.062 49.1519 47.035 50.1019L31.439 64.5299C30.934 64.9969 30.629 65.6419 30.589 66.3289L30.222 72.6069C30.132 74.1349 31.347 75.4239 32.879 75.4239Z" fill="#00B8D9"/>
<path d="M75.137 48.2358C79.4106 48.2358 82.875 44.7713 82.875 40.4978C82.875 36.2242 79.4106 32.7598 75.137 32.7598C70.8634 32.7598 67.399 36.2242 67.399 40.4978C67.399 44.7713 70.8634 48.2358 75.137 48.2358Z" fill="#FFAB00"/>
<path d="M46.522 83.7422H37.962V92.6522H46.522V83.7422Z" fill="#153A56"/>
<path d="M90.038 83.7422H81.478V92.6522H90.038V83.7422Z" fill="#153A56"/>
</g>
</g>
<defs>
<clipPath id="clip0_49_5245">
<rect width="128" height="128" fill="white"/>
</clipPath>
</defs>
</svg>
