<svg width="128" height="128" viewBox="0 0 128 128" fill="none" xmlns="http://www.w3.org/2000/svg">
<g clip-path="url(#clip0_49_5218)">
<mask id="mask0_49_5218" style="mask-type:alpha" maskUnits="userSpaceOnUse" x="0" y="0" width="128" height="128">
<path d="M128 0H0V128H128V0Z" fill="white"/>
</mask>
<g mask="url(#mask0_49_5218)">
<path d="M128 0H0V128H128V0Z" fill="#6555C0"/>
<path d="M79.305 83.4964C84.9117 83.4964 89.457 78.9512 89.457 73.3444C89.457 67.7376 84.9117 63.1924 79.305 63.1924C73.6982 63.1924 69.153 67.7376 69.153 73.3444C69.153 78.9512 73.6982 83.4964 79.305 83.4964Z" fill="#194063"/>
<path d="M93.4739 106.423C101.133 106.423 107.399 100.157 107.399 92.4982V68.7502C107.399 61.0912 101.133 54.8252 93.4739 54.8252C85.8149 54.8252 79.549 61.0912 79.549 68.7502V92.4972C79.548 100.156 85.8149 106.423 93.4739 106.423Z" fill="#FFC400"/>
<path d="M43.305 57.8103H17.559C14.01 57.8103 11.106 54.9063 11.106 51.3573C11.106 47.8083 14.01 44.9043 17.559 44.9043H43.306C46.87 44.9043 49.759 47.7933 49.759 51.3573C49.758 54.9063 46.854 57.8103 43.305 57.8103Z" fill="white"/>
<path d="M23.9919 57.8103H28.3019L38.1559 44.9053H33.8459L23.9919 57.8103Z" fill="#D3E0EA"/>
<path d="M48.186 34.92V67.198C48.186 69.889 50.368 72.071 53.059 72.071H107.399V46.245C107.399 37.274 100.127 30.002 91.156 30.002H53.059C50.368 30.001 48.186 32.204 48.186 34.92Z" fill="#FFC400"/>
<path d="M48.186 34.8701H39.513C36.822 34.8701 34.64 37.0521 34.64 39.7431V62.3201C34.64 65.0111 36.822 67.1931 39.513 67.1931H48.186V34.8701Z" fill="#2A5083"/>
<path d="M48.186 67.198V34.875H44.274C44.274 34.892 44.269 34.909 44.269 34.926V67.198H48.186Z" fill="#194063"/>
<path d="M92.382 45.485H75.784C74.976 45.485 74.314 44.824 74.314 44.015V42.18C74.314 41.372 74.975 40.71 75.784 40.71H92.382C93.19 40.71 93.852 41.371 93.852 42.18V44.015C93.852 44.823 93.191 45.485 92.382 45.485Z" fill="#2A5083"/>
<path d="M92.382 53.4527H75.784C74.976 53.4527 74.314 52.7917 74.314 51.9827V50.1477C74.314 49.3397 74.975 48.6777 75.784 48.6777H92.382C93.19 48.6777 93.852 49.3387 93.852 50.1477V51.9827C93.852 52.7907 93.191 53.4527 92.382 53.4527Z" fill="#2A5083"/>
<path d="M92.382 61.2848H75.784C74.976 61.2848 74.314 60.6238 74.314 59.8148V57.9798C74.314 57.1718 74.975 56.5098 75.784 56.5098H92.382C93.19 56.5098 93.852 57.1708 93.852 57.9798V59.8148C93.852 60.6228 93.191 61.2848 92.382 61.2848Z" fill="#2A5083"/>
<path d="M13.665 56.6323C14.646 57.3213 15.824 57.7323 17.095 57.7843L26.929 44.9053H22.619L13.665 56.6323Z" fill="#D3E0EA"/>
<path d="M81.421 72.0723H79.548V72.2323V73.9113V92.0583C79.548 99.7173 85.815 105.984 93.474 105.984C93.533 105.984 93.59 105.976 93.649 105.975V84.3003C93.649 77.5743 88.147 72.0723 81.421 72.0723Z" fill="#FF991F"/>
</g>
</g>
<defs>
<clipPath id="clip0_49_5218">
<rect width="128" height="128" fill="white"/>
</clipPath>
</defs>
</svg>
