<svg width="16" height="16" viewBox="0 0 16 16" fill="none" xmlns="http://www.w3.org/2000/svg">
<path fill-rule="evenodd" clip-rule="evenodd" d="M4.22 6.22015C4.36062 6.0797 4.55125 6.00081 4.75 6.00081C4.94875 6.00081 5.13937 6.0797 5.28 6.22015L8 8.94015L10.72 6.22015C10.7887 6.14647 10.8715 6.08736 10.9635 6.04637C11.0555 6.00538 11.1548 5.98334 11.2555 5.98156C11.3562 5.97979 11.4562 5.99831 11.5496 6.03603C11.643 6.07375 11.7278 6.1299 11.799 6.20112C11.8703 6.27233 11.9264 6.35717 11.9641 6.45056C12.0018 6.54394 12.0204 6.64397 12.0186 6.74468C12.0168 6.84538 11.9948 6.94469 11.9538 7.03669C11.9128 7.12869 11.8537 7.21149 11.78 7.28015L8.53 10.5302C8.38937 10.6706 8.19875 10.7495 8 10.7495C7.80125 10.7495 7.61062 10.6706 7.47 10.5302L4.22 7.28015C4.07955 7.13953 4.00066 6.9489 4.00066 6.75015C4.00066 6.5514 4.07955 6.36078 4.22 6.22015Z" fill="#F9BC60"/>
</svg>
