<svg width="16" height="16" viewBox="0 0 16 16" fill="none" xmlns="http://www.w3.org/2000/svg">
<path d="M12.6667 2.66699H3.33333C2.8029 2.66699 2.29419 2.87771 1.91911 3.25278C1.54404 3.62785 1.33333 4.13656 1.33333 4.66699V11.3337C1.33333 11.8641 1.54404 12.3728 1.91911 12.7479C2.29419 13.1229 2.8029 13.3337 3.33333 13.3337H12.6667C13.1971 13.3337 13.7058 13.1229 14.0809 12.7479C14.4559 12.3728 14.6667 11.8641 14.6667 11.3337V4.66699C14.6667 4.13656 14.4559 3.62785 14.0809 3.25278C13.7058 2.87771 13.1971 2.66699 12.6667 2.66699V2.66699ZM12.22 4.00033L8 7.16699L3.78 4.00033H12.22ZM12.6667 12.0003H3.33333C3.15652 12.0003 2.98695 11.9301 2.86192 11.8051C2.7369 11.68 2.66666 11.5105 2.66666 11.3337V4.83366L7.59999 8.53366C7.71539 8.62021 7.85575 8.66699 8 8.66699C8.14424 8.66699 8.2846 8.62021 8.4 8.53366L13.3333 4.83366V11.3337C13.3333 11.5105 13.2631 11.68 13.1381 11.8051C13.013 11.9301 12.8435 12.0003 12.6667 12.0003Z" fill="#899CC9"/>
</svg>
