<svg width="16" height="16" viewBox="0 0 16 16" fill="none" xmlns="http://www.w3.org/2000/svg">
<path d="M3.13998 2.19313C3.07782 2.13097 3.00403 2.08167 2.92281 2.04802C2.8416 2.01438 2.75455 1.99707 2.66665 1.99707C2.57874 1.99707 2.4917 2.01438 2.41048 2.04802C2.32927 2.08167 2.25547 2.13097 2.19331 2.19313C2.06778 2.31867 1.99725 2.48893 1.99725 2.66646C1.99725 2.844 2.06778 3.01426 2.19331 3.1398L5.94665 6.89313C5.70918 7.33488 5.62037 7.84138 5.69337 8.33756C5.76638 8.83375 5.99731 9.29321 6.35194 9.64784C6.70657 10.0025 7.16603 10.2334 7.66222 10.3064C8.1584 10.3794 8.6649 10.2906 9.10665 10.0531L12.86 13.8065C12.922 13.8689 12.9957 13.9185 13.0769 13.9524C13.1582 13.9862 13.2453 14.0037 13.3333 14.0037C13.4213 14.0037 13.5085 13.9862 13.5897 13.9524C13.6709 13.9185 13.7447 13.8689 13.8066 13.8065C13.8691 13.7445 13.9187 13.6708 13.9526 13.5895C13.9864 13.5083 14.0038 13.4211 14.0038 13.3331C14.0038 13.2451 13.9864 13.158 13.9526 13.0767C13.9187 12.9955 13.8691 12.9218 13.8066 12.8598L3.13998 2.19313ZM7.99998 8.9998C7.73476 8.9998 7.48041 8.89444 7.29287 8.7069C7.10534 8.51937 6.99998 8.26501 6.99998 7.9998V7.95313L8.03998 8.99313L7.99998 8.9998Z" fill="#899CC9"/>
<path d="M8.14667 11.3337C5.28001 11.4004 3.4 8.9404 2.81334 8.0004C3.23099 7.3342 3.73291 6.72471 4.30667 6.18707L3.33334 5.24707C2.58089 5.95605 1.93628 6.77136 1.42 7.66707C1.36149 7.76842 1.33069 7.88338 1.33069 8.0004C1.33069 8.11743 1.36149 8.23239 1.42 8.33374C1.84 9.0604 4.08667 12.6671 8.01334 12.6671H8.18001C8.91837 12.6452 9.64718 12.494 10.3333 12.2204L9.28001 11.1671C8.90958 11.2645 8.52946 11.3204 8.14667 11.3337Z" fill="#899CC9"/>
<path d="M14.58 7.66626C14.1534 6.92626 11.8 3.21292 7.82002 3.33292C7.08165 3.35482 6.35285 3.506 5.66669 3.77959L6.72002 4.83292C7.09044 4.73548 7.47056 4.67958 7.85335 4.66626C10.7134 4.59292 12.5934 7.05959 13.1867 7.99959C12.7587 8.66778 12.2455 9.27736 11.66 9.81292L12.6667 10.7529C13.4286 10.0458 14.0823 9.2304 14.6067 8.33292C14.6612 8.22925 14.6874 8.11305 14.6828 7.99601C14.6781 7.87898 14.6426 7.76524 14.58 7.66626V7.66626Z" fill="#899CC9"/>
</svg>
