<svg width="128" height="128" viewBox="0 0 128 128" fill="none" xmlns="http://www.w3.org/2000/svg">
<g clip-path="url(#clip0_49_5207)">
<mask id="mask0_49_5207" style="mask-type:alpha" maskUnits="userSpaceOnUse" x="0" y="0" width="128" height="128">
<path d="M128 0H0V128H128V0Z" fill="white"/>
</mask>
<g mask="url(#mask0_49_5207)">
<path d="M128 0H0V128H128V0Z" fill="#FFC400"/>
<path d="M112.668 34.252H65.986V91.44C65.986 94.386 68.374 96.773 71.319 96.773H112.668L102.391 65.512L112.668 34.252Z" fill="#DE350A"/>
<path d="M33.879 26.6836H73.953C76.899 26.6836 79.286 29.0716 79.286 32.0166V87.2266H33.879V26.6836Z" fill="#FF5630"/>
<path opacity="0.3" d="M65.986 87.2266V91.4396C65.986 94.3856 68.374 96.7726 71.319 96.7726H73.015L79.287 87.2256H65.986V87.2266Z" fill="#BF2601"/>
<path opacity="0.2" d="M38.426 26.6836H33.879V87.2266H38.426V26.6836Z" fill="#D32F06"/>
<path d="M29.744 20.2617C27.158 20.2617 25.043 22.3777 25.043 24.9627V128.762C27.986 131.024 31.13 127.032 34.446 128.762V24.9637C34.445 22.3777 32.329 20.2617 29.744 20.2617Z" fill="#C9E6F4"/>
<path d="M25.042 24.9637V128.806C25.958 129.51 26.89 128.151 27.844 128.806V24.9637C27.844 22.8687 29.242 21.1037 31.144 20.5007C30.698 20.3597 30.234 20.2617 29.743 20.2617C27.158 20.2617 25.042 22.3777 25.042 24.9637Z" fill="white"/>
</g>
</g>
<defs>
<clipPath id="clip0_49_5207">
<rect width="128" height="128" fill="white"/>
</clipPath>
</defs>
</svg>
