<svg width="128" height="128" viewBox="0 0 128 128" fill="none" xmlns="http://www.w3.org/2000/svg">
<g clip-path="url(#clip0_49_5191)">
<mask id="mask0_49_5191" style="mask-type:alpha" maskUnits="userSpaceOnUse" x="0" y="0" width="128" height="128">
<path d="M128 0H0V128H128V0Z" fill="white"/>
</mask>
<g mask="url(#mask0_49_5191)">
<path d="M128 0H0V128H128V0Z" fill="#FFC400"/>
<path d="M41.6 105.6C49.6 107.1 58.3 104.7 64.5 98.6L99.4 63.7C105.7 57.4 108 48.6 106.4 40.5L41.6 105.6Z" fill="#FF991F"/>
<path d="M91.1 21.8002C81.8 18.0002 70.6 19.8002 63.1 27.4002L28.2 62.3002C20.7 69.8002 18.8 80.9002 22.6 90.1002L91.1 21.8002Z" fill="#FF991F"/>
<path d="M36.4 104.1C38.3 104.9 40.2 105.4 42.1 105.7L106.5 41.3C106.2 39.3 105.6 37.4 104.8 35.5L36.4 104.1Z" fill="#FF8B01"/>
<path d="M24.3 102.9C24.6 103.2 25 103.5 25.3 103.8L104.4 24.2998C104.2 23.9998 103.9 23.6998 103.7 23.4998L103.3 23.0998C99.4 19.1998 93 19.1998 89.2 23.0998L23.9 88.2998C20 92.1998 20 98.5998 23.9 102.4L24.3 102.9Z" fill="#FF5630"/>
<path d="M38.6 102.7L103.5 37.7998C107.5 33.7998 107.5 27.2998 103.5 23.2998L24.1 102.7C28.1 106.7 34.6 106.7 38.6 102.7Z" fill="#DE350A"/>
<path d="M49.7 85.4004C53 81.1004 53 77.0004 53 76.7004C53.1 75.4004 53.8 68.3004 61.5 68.2004H61.9C63.2 68.3004 67.1 68.2004 71.2 64.1004L71.3 64.0004C71.8 63.5004 72.2 63.0004 72.7 62.4004C76 58.1004 76 54.1004 76 53.7004C76.1 52.4004 76.8 45.3004 84.5 45.2004C85.3 45.2004 86 44.9004 86.6 44.3004C87.8 43.1004 87.8 41.3004 86.6 40.1004C86.1 39.6004 85.4 39.3004 84.7 39.3004C84.7 39.3004 80 38.3004 74.9 43.3004L74.8 43.4004C74.3 43.9004 73.9 44.4004 73.4 45.0004C70.1 49.3004 70.1 53.3004 70.1 53.7004C70 55.0004 69.3 62.1004 61.6 62.2004H61.2C59.9 62.1004 56 62.2004 51.9 66.3004L51.8 66.4004C51.3 66.9004 50.9 67.4004 50.4 68.0004C47.1 72.3004 47.1 76.3004 47.1 76.7004C47 78.0004 46.3 85.1004 38.6 85.2004C37.8 85.2004 37.1 85.5004 36.5 86.1004C35.3 87.3004 35.3 89.1004 36.5 90.3004C37 90.8004 37.7 91.1004 38.4 91.1004C38.4 91.1004 43.1 92.1004 48.2 87.1004L48.3 87.0004C48.8 86.5004 49.2 86.0004 49.7 85.4004Z" fill="#FFA821"/>
<path d="M45.4 73.1004C44.8 73.5004 44.3 74.0004 43.8 74.5004L43.7 74.6004C38.7 79.6004 39.7 84.4004 39.7 84.4004C39.7 84.7004 39.8 84.9004 39.9 85.2004C43.5 84.8004 45.3 82.8004 46.3 80.8004C46.4 80.6004 46.4 80.5004 46.5 80.4004C47.1 78.9004 47.3 77.4004 47.3 76.9004C47.3 76.6004 47.3 74.3004 48.7 71.4004C47.5 71.6004 46.4 72.3004 45.4 73.1004Z" fill="white"/>
<path d="M68.4 50.0998C67.8 50.4998 67.3 50.9998 66.8 51.4998L66.7 51.5998C65.1 53.1998 64.2 54.6998 63.6 55.9998C62.6 58.1998 62.6 60.0998 62.7 60.8998V61.2998C62.7 66.0998 59.9 68.1998 57.5 69.0998C54.3 70.6998 53.4 73.9998 53.2 75.7998C53.6 75.6998 53.9 75.6998 54.1 75.6998C54.4 75.6998 58.5 75.6998 62.8 72.3998C63.4 71.9998 63.9 71.4998 64.4 70.9998L64.5 70.8998C65.8 69.5998 66.8 68.1998 67.4 66.9998C68.7 64.4998 68.7 62.3998 68.6 61.4998V61.0998C68.6 59.7998 68.8 58.6998 69.2 57.7998C69.2 57.7998 69.2 57.6998 69.3 57.6998C69.4 57.4998 69.4 57.3998 69.5 57.2998C70.1 55.7998 70.3 54.2998 70.3 53.7998C70.3 53.4998 70.3 51.1998 71.7 48.2998C70.6 48.5998 69.5 49.1998 68.4 50.0998Z" fill="white"/>
<path d="M91.5001 38.0002C91.4001 37.3002 91.2001 36.6002 90.6001 36.1002C89.4001 34.9002 87.6001 34.9002 86.4001 36.1002C85.8001 36.7002 85.5001 37.5002 85.5001 38.2002C85.5001 38.6002 85.5001 39.0002 85.4001 39.3002C85.8001 39.4002 86.2001 39.7002 86.6001 40.0002C87.8001 41.2002 87.8001 43.0002 86.6001 44.2002C86.0001 44.8002 85.2001 45.1002 84.5001 45.1002C83.2001 45.1002 82.0001 45.3002 81.1001 45.7002C81.0001 45.8002 80.8001 45.8002 80.7001 45.9002C77.3001 47.5002 76.4001 50.9002 76.2001 52.7002C76.6001 52.6002 76.9001 52.6002 77.1001 52.6002C77.4001 52.6002 81.5001 52.6002 85.8001 49.3002C86.4001 48.9002 86.9001 48.4002 87.4001 47.9002L87.5001 47.8002C92.6001 42.7002 91.5001 38.0002 91.5001 38.0002Z" fill="white"/>
</g>
</g>
<defs>
<clipPath id="clip0_49_5191">
<rect width="128" height="128" fill="white"/>
</clipPath>
</defs>
</svg>
