<svg width="16" height="16" viewBox="0 0 16 16" fill="none" xmlns="http://www.w3.org/2000/svg">
<g clip-path="url(#clip0_111_139)">
<path d="M14.9921 8.13765C14.9921 7.53677 14.9433 7.09828 14.8378 6.64355H7.97592V9.35566H12.0037C11.9225 10.0297 11.484 11.0447 10.5095 11.7267L10.4959 11.8175L12.6655 13.4982L12.8158 13.5132C14.1962 12.2383 14.9921 10.3626 14.9921 8.13765Z" fill="#4285F4"/>
<path d="M7.97592 15.2836C9.94919 15.2836 11.6058 14.634 12.8158 13.5135L10.5095 11.727C9.89236 12.1574 9.06405 12.4578 7.97592 12.4578C6.04323 12.4578 4.40289 11.183 3.81815 9.4209L3.73244 9.42818L1.47646 11.174L1.44696 11.256C2.64879 13.6433 5.11745 15.2836 7.97592 15.2836Z" fill="#34A853"/>
<path d="M3.81815 9.4207C3.66387 8.96597 3.57457 8.47873 3.57457 7.9753C3.57457 7.47182 3.66387 6.98463 3.81004 6.52991L3.80595 6.43306L1.5217 4.65918L1.44696 4.69473C0.951627 5.6854 0.667404 6.79788 0.667404 7.9753C0.667404 9.15272 0.951627 10.2651 1.44696 11.2558L3.81815 9.4207Z" fill="#FBBC05"/>
<path d="M7.97592 3.49279C9.34827 3.49279 10.274 4.08556 10.8019 4.58092L12.8645 2.56711C11.5977 1.38969 9.94919 0.666992 7.97592 0.666992C5.11745 0.666992 2.64879 2.30725 1.44696 4.69456L3.81004 6.52974C4.40289 4.76767 6.04323 3.49279 7.97592 3.49279Z" fill="#EB4335"/>
</g>
<defs>
<clipPath id="clip0_111_139">
<rect width="14.333" height="14.6667" fill="white" transform="translate(0.666672 0.666992)"/>
</clipPath>
</defs>
</svg>
