<svg width="20" height="20" viewBox="0 0 20 20" fill="none" xmlns="http://www.w3.org/2000/svg">
<path fill-rule="evenodd" clip-rule="evenodd" d="M9.35875 3.61273C9.38173 3.49175 9.38066 3.36743 9.35559 3.24686C9.33053 3.12629 9.28196 3.01185 9.21267 2.91005C9.07272 2.70446 8.85683 2.56289 8.6125 2.51648C8.49152 2.4935 8.3672 2.49457 8.24663 2.51963C8.12607 2.5447 8.01162 2.59327 7.90982 2.66256C7.70423 2.80251 7.56266 3.0184 7.51625 3.26273L6.9475 6.24773H4.5125C4.26386 6.24773 4.0254 6.3465 3.84959 6.52232C3.67377 6.69813 3.575 6.93659 3.575 7.18523C3.575 7.43387 3.67377 7.67233 3.84959 7.84814C4.0254 8.02396 4.26386 8.12273 4.5125 8.12273H6.59125L5.8775 11.8702H3.4375C3.18886 11.8702 2.9504 11.969 2.77459 12.1448C2.59877 12.3206 2.5 12.5591 2.5 12.8077C2.5 13.0564 2.59877 13.2948 2.77459 13.4706C2.9504 13.6465 3.18886 13.7452 3.4375 13.7452H5.52L5.01625 16.3877C4.99327 16.5087 4.99434 16.633 5.01941 16.7536C5.04447 16.8742 5.09304 16.9886 5.16233 17.0904C5.30228 17.296 5.51817 17.4376 5.7625 17.484C6.00683 17.5304 6.25959 17.4778 6.46518 17.3379C6.67077 17.1979 6.81234 16.9821 6.85875 16.7377L7.42875 13.7452H11.145L10.6412 16.3877C10.6183 16.5087 10.6193 16.633 10.6444 16.7536C10.6695 16.8742 10.718 16.9886 10.7873 17.0904C10.8566 17.1922 10.9453 17.2794 11.0483 17.3469C11.1513 17.4144 11.2665 17.461 11.3875 17.484C11.6318 17.5304 11.8846 17.4778 12.0902 17.3379C12.2958 17.1979 12.4373 16.9821 12.4838 16.7377L13.0538 13.7452H15.4875C15.7361 13.7452 15.9746 13.6465 16.1504 13.4706C16.3262 13.2948 16.425 13.0564 16.425 12.8077C16.425 12.5591 16.3262 12.3206 16.1504 12.1448C15.9746 11.969 15.7361 11.8702 15.4875 11.8702H13.4113L14.1237 8.12273H16.5612C16.8099 8.12273 17.0483 8.02396 17.2242 7.84814C17.4 7.67233 17.4987 7.43387 17.4987 7.18523C17.4987 6.93659 17.4 6.69813 17.2242 6.52232C17.0483 6.3465 16.8099 6.24773 16.5612 6.24773H14.4812L14.9838 3.61273C15.0302 3.3684 14.9776 3.11564 14.8377 2.91005C14.6977 2.70446 14.4818 2.56289 14.2375 2.51648C13.9932 2.47007 13.7404 2.52261 13.5348 2.66256C13.3292 2.80251 13.1877 3.0184 13.1412 3.26273L12.5725 6.24773H8.85625L9.35875 3.61273ZM8.5 8.12273L7.78625 11.8702H11.5025L12.215 8.12273H8.5Z" fill="#F9BC60"/>
</svg>
