<svg width="128" height="128" viewBox="0 0 128 128" fill="none" xmlns="http://www.w3.org/2000/svg">
<g clip-path="url(#clip0_49_5156)">
<mask id="mask0_49_5156" style="mask-type:alpha" maskUnits="userSpaceOnUse" x="0" y="0" width="128" height="128">
<path d="M128 0H0V128H128V0Z" fill="white"/>
</mask>
<g mask="url(#mask0_49_5156)">
<path d="M128 0H0V128H128V0Z" fill="#2684FF"/>
<path d="M90.421 17.7324H37.816C31.961 17.7324 27.17 22.5234 27.17 28.3784V128.979L101.067 129.234V28.3784C101.067 22.5234 96.277 17.7324 90.421 17.7324Z" fill="#253858"/>
<path d="M32.99 39.4561V128.793L95.248 128.792V39.4561H32.99Z" fill="white"/>
<path d="M64.119 94.4681C76.8834 94.4681 87.231 84.1205 87.231 71.3561C87.231 58.5917 76.8834 48.2441 64.119 48.2441C51.3546 48.2441 41.007 58.5917 41.007 71.3561C41.007 84.1205 51.3546 94.4681 64.119 94.4681Z" fill="#FFBDAE"/>
<path d="M111.397 50.439C118.67 59.605 118.67 72.649 111.397 81.815C110.392 83.084 108.757 83.346 107.957 82.509C107.153 81.67 107.284 80.22 108.089 79.197C114.148 71.561 114.148 60.693 108.089 53.057C107.284 52.034 107.153 50.584 107.957 49.745C108.756 48.908 110.392 49.17 111.397 50.439Z" fill="white"/>
<path d="M17.015 50.439C9.74199 59.605 9.74199 72.649 17.015 81.815C18.02 83.084 19.655 83.346 20.455 82.509C21.259 81.67 21.128 80.22 20.323 79.197C14.264 71.561 14.264 60.693 20.323 53.057C21.128 52.034 21.259 50.584 20.455 49.745C19.655 48.908 18.019 49.17 17.015 50.439Z" fill="white"/>
<path d="M79.224 33.4021H49.051C48.02 33.4021 47.176 32.5581 47.176 31.5271V30.2871C47.176 29.2561 48.02 28.4121 49.051 28.4121H79.224C80.255 28.4121 81.099 29.2561 81.099 30.2871V31.5271C81.099 32.5581 80.256 33.4021 79.224 33.4021Z" fill="#1B4068"/>
<path d="M70.611 71.832H57.664C57.388 71.832 57.164 72.056 57.164 72.332C57.164 74.792 58.438 76.954 60.362 78.196C60.381 78.208 60.4 78.22 60.419 78.232H60.433C61.507 78.908 62.775 79.305 64.138 79.305C65.505 79.305 66.777 78.906 67.853 78.226L67.857 78.232C69.813 76.997 71.112 74.816 71.112 72.332C71.111 72.056 70.887 71.832 70.611 71.832Z" fill="#FF4E4A"/>
<path d="M54.089 68.4622C55.4852 68.4622 56.617 67.3304 56.617 65.9342C56.617 64.5381 55.4852 63.4062 54.089 63.4062C52.6929 63.4062 51.561 64.5381 51.561 65.9342C51.561 67.3304 52.6929 68.4622 54.089 68.4622Z" fill="#333333"/>
<path d="M74.185 68.4622C75.5812 68.4622 76.713 67.3304 76.713 65.9342C76.713 64.5381 75.5812 63.4062 74.185 63.4062C72.7888 63.4062 71.657 64.5381 71.657 65.9342C71.657 67.3304 72.7888 68.4622 74.185 68.4622Z" fill="#333333"/>
<path d="M68.852 115.832H80.716C81.816 115.832 82.716 114.932 82.716 113.832V102.879C82.716 101.779 81.816 100.879 80.716 100.879H68.852C67.752 100.879 66.852 101.779 66.852 102.879V113.832C66.852 114.932 67.752 115.832 68.852 115.832Z" fill="#B3D4FF"/>
<path d="M47.56 115.832H59.424C60.524 115.832 61.424 114.932 61.424 113.832V102.879C61.424 101.779 60.524 100.879 59.424 100.879H47.56C46.46 100.879 45.56 101.779 45.56 102.879V113.832C45.56 114.932 46.46 115.832 47.56 115.832Z" fill="#FF4E4A"/>
</g>
</g>
<defs>
<clipPath id="clip0_49_5156">
<rect width="128" height="128" fill="white"/>
</clipPath>
</defs>
</svg>
