<svg width="128" height="128" viewBox="0 0 128 128" fill="none" xmlns="http://www.w3.org/2000/svg">
<g clip-path="url(#clip0_49_5137)">
<rect width="128" height="128" fill="#FFC400"/>
<mask id="mask0_49_5137" style="mask-type:alpha" maskUnits="userSpaceOnUse" x="1" y="0" width="128" height="128">
<path d="M129 0H1V128H129V0Z" fill="white"/>
</mask>
<g mask="url(#mask0_49_5137)">
<path d="M129 0H1V128H129V0Z" fill="#FFC400"/>
<path d="M101.555 35.1248C101.555 31.4618 98.558 28.4648 94.895 28.4648H31.402C26.757 28.4648 22.957 32.2648 22.957 36.9098V76.6568H101.555V45.3158V35.1248Z" fill="#2A5083"/>
<path d="M90.189 28.4648H83.232L81.756 30.0628L80.186 28.4648H31.402C26.757 28.4648 22.957 32.2648 22.957 36.9098C22.957 41.5548 26.757 45.3548 31.402 45.3548H90.19C94.835 45.3548 98.635 41.5548 98.635 36.9098C98.635 32.2648 94.834 28.4648 90.189 28.4648Z" fill="#153A56"/>
<path d="M97.013 28.4648H78.964L74.68 76.6568H103.674V45.3158V35.1248C103.674 31.4618 100.676 28.4648 97.013 28.4648Z" fill="#153A56"/>
<path d="M81.756 30.063L80.804 28.465L76.633 21.464C75.443 19.467 72.871 18.797 70.858 19.958L56.113 28.465L28.053 44.654C29.082 45.102 30.213 45.354 31.402 45.354H32.714H90.19H90.868L81.756 30.063Z" fill="#00B8D9"/>
<path d="M27.957 102.057H102.148C104.898 102.057 107.148 99.8065 107.148 97.0565V50.3535C107.148 47.6035 104.898 45.3535 102.148 45.3535H27.957C25.207 45.3535 22.957 47.6035 22.957 50.3535V97.0555C22.957 99.8065 25.207 102.057 27.957 102.057Z" fill="#253858"/>
<path d="M90.033 83.9825H108.732C110.382 83.9825 111.732 82.6325 111.732 80.9825V64.3555C111.732 62.7055 110.382 61.3555 108.732 61.3555H90.033C85.362 61.3555 81.54 65.1775 81.54 69.8485V75.4885C81.54 80.1605 85.362 83.9825 90.033 83.9825Z" fill="#153A56"/>
<path d="M93.472 77.8308C96.3229 77.8308 98.634 75.5197 98.634 72.6688C98.634 69.8179 96.3229 67.5068 93.472 67.5068C90.6211 67.5068 88.31 69.8179 88.31 72.6688C88.31 75.5197 90.6211 77.8308 93.472 77.8308Z" fill="#FFB115"/>
<path d="M61.175 85.379C68.1945 85.379 73.885 79.6885 73.885 72.669C73.885 65.6494 68.1945 59.959 61.175 59.959C54.1555 59.959 48.465 65.6494 48.465 72.669C48.465 79.6885 54.1555 85.379 61.175 85.379Z" fill="#345E8C"/>
<path opacity="0.5" d="M83.366 44.921L73.013 27.569C72.568 26.823 71.593 26.576 70.846 27.022L61.944 32.333C61.198 32.778 60.951 33.753 61.397 34.5C61.842 35.246 62.817 35.493 63.564 35.047L71.109 30.545L79.945 45.354H83.537C83.499 45.206 83.448 45.059 83.366 44.921Z" fill="white"/>
<path opacity="0.5" d="M63.323 45.3537C61.596 41.3787 57.638 38.5957 53.027 38.5957C48.416 38.5957 44.459 41.3777 42.731 45.3537H63.323Z" fill="white"/>
<path d="M80.822 28.4958L91.107 25.8108C93.378 25.2178 95.7 26.5778 96.293 28.8498L100.603 45.3548H90.18L80.822 28.4958Z" fill="#00A3BF"/>
<path opacity="0.5" d="M94.818 45.3536L91.328 32.7666C91.096 31.9286 90.22 31.4336 89.383 31.6656L83.536 33.2866L85.114 36.1286L88.705 35.1326L91.539 45.3526H94.818V45.3536Z" fill="white"/>
<path opacity="0.1" d="M86.941 26.8984L92.651 45.3544H90.18L80.822 28.4964L86.941 26.8984Z" fill="#153A56"/>
<path opacity="0.1" d="M101.555 41.9746H28.052V46.4536H101.555V41.9746Z" fill="#153A56"/>
</g>
</g>
<defs>
<clipPath id="clip0_49_5137">
<rect width="128" height="128" fill="white"/>
</clipPath>
</defs>
</svg>
