<svg width="16" height="16" viewBox="0 0 16 16" fill="none" xmlns="http://www.w3.org/2000/svg">
<path d="M8.00001 0C6.33836 0 4.74476 0.621051 3.56979 1.72653C2.39483 2.83201 1.73474 4.33136 1.73474 5.89474V8.86568C1.73487 8.99632 1.70269 9.12519 1.64076 9.24211L0.103978 12.1331C0.0289077 12.2743 -0.0065397 12.4312 0.00100228 12.589C0.00854425 12.7467 0.0588251 12.9001 0.147069 13.0344C0.235314 13.1687 0.358592 13.2796 0.505194 13.3565C0.651797 13.4334 0.816856 13.4737 0.984696 13.4737H15.0153C15.1832 13.4737 15.3482 13.4334 15.4948 13.3565C15.6414 13.2796 15.7647 13.1687 15.8529 13.0344C15.9412 12.9001 15.9915 12.7467 15.999 12.589C16.0066 12.4312 15.9711 12.2743 15.896 12.1331L14.3602 9.24211C14.2979 9.12526 14.2654 8.99638 14.2653 8.86568V5.89474C14.2653 4.33136 13.6052 2.83201 12.4302 1.72653C11.2553 0.621051 9.66166 0 8.00001 0ZM8.00001 16C7.4445 16.0003 6.90258 15.8384 6.44892 15.5368C5.99527 15.2352 5.65222 14.8086 5.46705 14.3158H10.533C10.3478 14.8086 10.0047 15.2352 9.55109 15.5368C9.09744 15.8384 8.55552 16.0003 8.00001 16Z" fill="#F9BC60"/>
</svg>
