<svg width="6" height="9" viewBox="0 0 6 9" fill="none" xmlns="http://www.w3.org/2000/svg">
<path fill-rule="evenodd" clip-rule="evenodd" d="M1.22 8.77968C1.07955 8.63906 1.00066 8.44843 1.00066 8.24968C1.00066 8.05093 1.07955 7.86031 1.22 7.71968L3.94 4.99968L1.22 2.27968C1.14631 2.21102 1.08721 2.12822 1.04622 2.03622C1.00523 1.94422 0.983186 1.84491 0.981409 1.74421C0.979633 1.6435 0.998157 1.54347 1.03588 1.45009C1.0736 1.3567 1.12974 1.27186 1.20096 1.20065C1.27218 1.12943 1.35701 1.07328 1.4504 1.03556C1.54379 0.99784 1.64382 0.979315 1.74452 0.981091C1.84523 0.982868 1.94454 1.00491 2.03654 1.0459C2.12854 1.08689 2.21134 1.146 2.28 1.21968L5.53 4.46968C5.67045 4.61031 5.74934 4.80093 5.74934 4.99968C5.74934 5.19843 5.67045 5.38906 5.53 5.52968L2.28 8.77968C2.13938 8.92013 1.94875 8.99902 1.75 8.99902C1.55125 8.99902 1.36063 8.92013 1.22 8.77968Z" fill="#F9BC60"/>
</svg>
