<svg width="20" height="20" viewBox="0 0 20 20" fill="none" xmlns="http://www.w3.org/2000/svg">
<path fill-rule="evenodd" clip-rule="evenodd" d="M7.84 1.804C7.88529 1.57739 8.00767 1.37346 8.18634 1.22689C8.365 1.08031 8.58891 1.00014 8.82 1H11.18C11.4111 1.00014 11.635 1.08031 11.8137 1.22689C11.9923 1.37346 12.1147 1.57739 12.16 1.804L12.491 3.456C13.1895 3.72219 13.8407 4.09863 14.42 4.571L16.018 4.031C16.2369 3.95702 16.4747 3.96112 16.6909 4.04261C16.9071 4.1241 17.0884 4.27795 17.204 4.478L18.384 6.522C18.4997 6.72209 18.5424 6.95607 18.5051 7.18413C18.4677 7.4122 18.3525 7.62029 18.179 7.773L16.912 8.886C17.0301 9.62397 17.0301 10.376 16.912 11.114L18.179 12.227C18.3524 12.3795 18.4676 12.5874 18.5052 12.8152C18.5427 13.0431 18.5003 13.2769 18.385 13.477L17.205 15.522C17.0893 15.7223 16.9079 15.8763 16.6914 15.9578C16.475 16.0393 16.237 16.0432 16.018 15.969L14.42 15.429C13.8407 15.9014 13.1895 16.2778 12.491 16.544L12.161 18.196C12.1157 18.4226 11.9933 18.6265 11.8147 18.7731C11.636 18.9197 11.4121 18.9999 11.181 19H8.82C8.58891 18.9999 8.365 18.9197 8.18634 18.7731C8.00767 18.6265 7.88529 18.4226 7.84 18.196L7.509 16.544C6.81054 16.2778 6.15928 15.9014 5.58 15.429L3.982 15.969C3.76311 16.043 3.52535 16.0389 3.30914 15.9574C3.09293 15.8759 2.91161 15.7221 2.796 15.522L1.616 13.478C1.50035 13.2779 1.45757 13.0439 1.49494 12.8159C1.53232 12.5878 1.64753 12.3797 1.821 12.227L3.088 11.113C2.97001 10.3754 2.97001 9.62364 3.088 8.886L1.821 7.773C1.64761 7.62047 1.53236 7.41264 1.49481 7.18478C1.45726 6.95693 1.49973 6.7231 1.615 6.523L2.795 4.478C2.91065 4.27773 3.09214 4.12373 3.30856 4.04223C3.52499 3.96073 3.76298 3.95676 3.982 4.031L5.58 4.571C6.15957 4.09852 6.81118 3.72207 7.51 3.456L7.84 1.804ZM10 13C10.7956 13 11.5587 12.6839 12.1213 12.1213C12.6839 11.5587 13 10.7956 13 10C13 9.20435 12.6839 8.44129 12.1213 7.87868C11.5587 7.31607 10.7956 7 10 7C9.20435 7 8.44129 7.31607 7.87868 7.87868C7.31607 8.44129 7 9.20435 7 10C7 10.7956 7.31607 11.5587 7.87868 12.1213C8.44129 12.6839 9.20435 13 10 13Z" fill="#F9BC60"/>
</svg>
