<svg width="128" height="128" viewBox="0 0 128 128" fill="none" xmlns="http://www.w3.org/2000/svg">
<g clip-path="url(#clip0_49_5005)">
<mask id="mask0_49_5005" style="mask-type:alpha" maskUnits="userSpaceOnUse" x="0" y="0" width="128" height="128">
<path d="M128 0H0V128H128V0Z" fill="white"/>
</mask>
<g mask="url(#mask0_49_5005)">
<path d="M128 0H0V128H128V0Z" fill="#FF5630"/>
<path d="M94.5781 101.288H92.4201C90.6251 101.288 89.1571 99.8204 89.1571 98.0254V33.5364C89.1571 31.7414 90.6251 30.2734 92.4201 30.2734H94.5781C96.3731 30.2734 97.8411 31.7414 97.8411 33.5364V98.0254C97.8421 99.8194 96.3731 101.288 94.5781 101.288Z" fill="#2A5083"/>
<path d="M34.2521 101.288H32.0941C30.2991 101.288 28.8311 99.8204 28.8311 98.0254V33.5364C28.8311 31.7414 30.2991 30.2734 32.0941 30.2734H34.2521C36.0471 30.2734 37.5151 31.7414 37.5151 33.5364V98.0254C37.5151 99.8194 36.0471 101.288 34.2521 101.288Z" fill="#2A5083"/>
<path d="M37.5151 68.3105H28.8301V76.0735H37.5151V68.3105Z" fill="#153A56"/>
<path d="M33.1731 70.7755C26.3421 70.7755 20.7531 65.1865 20.7531 58.3555C20.7531 51.5245 26.3421 45.9355 33.1731 45.9355C40.0041 45.9355 45.5931 51.5245 45.5931 58.3555C45.5931 65.1865 40.0041 70.7755 33.1731 70.7755Z" fill="white"/>
<path opacity="0.2" d="M38.0211 60.881H28.3241C27.4531 60.881 26.7411 60.169 26.7411 59.298V58.25C26.7411 57.379 27.4531 56.667 28.3241 56.667H38.0211C38.8921 56.667 39.6041 57.379 39.6041 58.25V59.297C39.6051 60.168 38.8921 60.881 38.0211 60.881Z" fill="#2A5083"/>
<path d="M97.8421 85.3066H89.1571V93.0696H97.8421V85.3066Z" fill="#153A56"/>
<path d="M93.4991 87.7726C86.6681 87.7726 81.0791 82.1836 81.0791 75.3526C81.0791 68.5216 86.6681 62.9326 93.4991 62.9326C100.33 62.9326 105.919 68.5216 105.919 75.3526C105.919 82.1826 100.33 87.7726 93.4991 87.7726Z" fill="white"/>
<path opacity="0.2" d="M98.3481 77.8771H88.6511C87.7801 77.8771 87.0681 77.1651 87.0681 76.2941V75.2471C87.0681 74.3761 87.7811 73.6641 88.6511 73.6641H98.3481C99.2191 73.6641 99.9311 74.3771 99.9311 75.2471V76.2941C99.9311 77.1651 99.2191 77.8771 98.3481 77.8771Z" fill="#2A5083"/>
<path d="M64.415 101.288H62.257C60.462 101.288 58.994 99.8204 58.994 98.0254V33.5364C58.994 31.7414 60.462 30.2734 62.257 30.2734H64.415C66.21 30.2734 67.678 31.7414 67.678 33.5364V98.0254C67.678 99.8194 66.21 101.288 64.415 101.288Z" fill="#2A5083"/>
<path d="M67.659 40.0547H58.974V47.8177H67.659V40.0547Z" fill="#153A56"/>
<path d="M63.316 42.5207C56.485 42.5207 50.896 36.9317 50.896 30.1007C50.896 23.2697 56.485 17.6807 63.316 17.6807C70.147 17.6807 75.736 23.2697 75.736 30.1007C75.736 36.9317 70.147 42.5207 63.316 42.5207Z" fill="white"/>
<path opacity="0.2" d="M68.165 32.6261H58.468C57.597 32.6261 56.885 31.9141 56.885 31.0431V29.9961C56.885 29.1251 57.597 28.4131 58.468 28.4131H68.165C69.036 28.4131 69.748 29.1251 69.748 29.9961V31.0431C69.748 31.9131 69.036 32.6261 68.165 32.6261Z" fill="#2A5083"/>
</g>
</g>
<defs>
<clipPath id="clip0_49_5005">
<rect width="128" height="128" fill="white"/>
</clipPath>
</defs>
</svg>
