<svg width="128" height="128" viewBox="0 0 128 128" fill="none" xmlns="http://www.w3.org/2000/svg">
<g clip-path="url(#clip0_49_4974)">
<mask id="mask0_49_4974" style="mask-type:alpha" maskUnits="userSpaceOnUse" x="0" y="0" width="128" height="128">
<path d="M128 0H0V128H128V0Z" fill="white"/>
</mask>
<g mask="url(#mask0_49_4974)">
<path d="M128 0H0V128H128V0Z" fill="#FF5630"/>
<path d="M96.814 25.9961H31.104C24.242 25.9961 18.627 31.6101 18.627 38.4731V50.5021H109.291V38.4721C109.29 31.6101 103.676 25.9961 96.814 25.9961Z" fill="white"/>
<path d="M18.627 50.2236V87.6806V88.4956C18.627 95.3576 24.241 100.973 31.104 100.973H96.814C103.676 100.973 109.291 95.3586 109.291 88.4956V87.6806V50.2236H18.627Z" fill="#253858"/>
<path d="M33.598 43.2447C36.1247 43.2447 38.173 41.1964 38.173 38.6697C38.173 36.143 36.1247 34.0947 33.598 34.0947C31.0713 34.0947 29.023 36.143 29.023 38.6697C29.023 41.1964 31.0713 43.2447 33.598 43.2447Z" fill="#FF4E4A"/>
<path d="M48.01 43.2447C50.5367 43.2447 52.585 41.1964 52.585 38.6697C52.585 36.143 50.5367 34.0947 48.01 34.0947C45.4833 34.0947 43.435 36.143 43.435 38.6697C43.435 41.1964 45.4833 43.2447 48.01 43.2447Z" fill="#FFB115"/>
<path d="M62.421 43.2447C64.9477 43.2447 66.996 41.1964 66.996 38.6697C66.996 36.143 64.9477 34.0947 62.421 34.0947C59.8943 34.0947 57.846 36.143 57.846 38.6697C57.846 41.1964 59.8943 43.2447 62.421 43.2447Z" fill="#00C7E6"/>
<path d="M56.339 76.3235L60.503 76.5495L57.316 82.9275C56.799 83.9615 57.196 85.2185 58.213 85.7685C59.278 86.3445 60.608 85.9255 61.149 84.8425L64.374 78.3875L66.856 81.2775C67.777 82.3505 69.537 81.7235 69.572 80.3095L69.94 65.5165C69.975 64.1215 68.366 63.3205 67.274 64.1885L55.462 73.5715C54.349 74.4555 54.92 76.2465 56.339 76.3235Z" fill="white"/>
</g>
</g>
<defs>
<clipPath id="clip0_49_4974">
<rect width="128" height="128" fill="white"/>
</clipPath>
</defs>
</svg>
