<svg width="32" height="32" viewBox="0 0 32 32" fill="none" xmlns="http://www.w3.org/2000/svg">
<path d="M19.989 7.99965L16.922 11.0626C16.5851 11.399 16.3204 11.8005 16.144 12.2426L16.064 12.4666L15.324 14.7616C15.2026 15.139 15.183 15.5418 15.2672 15.9292C15.3515 16.3166 15.5367 16.6748 15.8039 16.9677C16.0712 17.2605 16.411 17.4775 16.7891 17.5967C17.1672 17.716 17.5701 17.7332 17.957 17.6466L18.113 17.6066L20.441 16.9066C20.9144 16.7647 21.3523 16.5241 21.726 16.2006L21.907 16.0316L26 11.9456V20.7546C26 21.1814 25.9159 21.6041 25.7526 21.9984C25.5893 22.3927 25.3499 22.751 25.0481 23.0527C24.7463 23.3545 24.388 23.5939 23.9937 23.7573C23.5994 23.9206 23.1768 24.0046 22.75 24.0046H9.25C8.38805 24.0046 7.5614 23.6622 6.9519 23.0527C6.34241 22.4432 6 21.6166 6 20.7546V16.5546L6.076 16.5236L6.149 16.4826L9.909 14.1196L10.007 14.0676C10.1407 14.0089 10.2885 13.9905 10.4325 14.0146C10.5765 14.0388 10.7103 14.1044 10.8175 14.2034C10.9247 14.3025 11.0007 14.4307 11.0362 14.5723C11.0716 14.7139 11.0649 14.8628 11.017 15.0006L10.971 15.1046L9.763 17.3906L9.693 17.5356C9.50949 17.9529 9.45708 18.4161 9.54269 18.8639C9.6283 19.3117 9.8479 19.7228 10.1724 20.043C10.4969 20.3632 10.911 20.5772 11.3599 20.6568C11.8088 20.7364 12.2712 20.6777 12.686 20.4886L12.856 20.4026L14.621 19.4066L14.706 19.3496C14.8503 19.2396 14.9497 19.0809 14.9859 18.9031C15.0222 18.7252 14.9927 18.5403 14.9029 18.3826C14.8132 18.2248 14.6693 18.105 14.4979 18.0452C14.3266 17.9855 14.1394 17.9899 13.971 18.0576L13.879 18.1026L12.12 19.0956L12.022 19.1416C11.8876 19.1934 11.7412 19.2053 11.6002 19.1761C11.4592 19.1468 11.3296 19.0776 11.2269 18.9767C11.1242 18.8758 11.0527 18.7474 11.021 18.607C10.9893 18.4665 10.9986 18.3199 11.048 18.1846L11.089 18.0916L12.297 15.8056L12.377 15.6396C12.5601 15.2119 12.6061 14.7379 12.5086 14.2829C12.4111 13.8279 12.1749 13.4144 11.8327 13.0992C11.4904 12.784 11.0588 12.5826 10.5973 12.5229C10.1359 12.4632 9.66726 12.548 9.256 12.7656L9.11 12.8496L6 14.8046V11.2496C5.99995 10.4195 6.31755 9.62082 6.88767 9.01741C7.45779 8.41401 8.23719 8.05164 9.066 8.00465L9.25 7.99965H19.989ZM25.176 7.54465L25.306 7.66465L25.426 7.79465C25.7971 8.22904 25.9908 8.78741 25.9684 9.35833C25.946 9.92925 25.7091 10.4707 25.305 10.8746L21.024 15.1476C20.7609 15.41 20.4369 15.603 20.081 15.7096L17.754 16.4096C17.5793 16.4623 17.3935 16.4661 17.2168 16.4207C17.0401 16.3753 16.8791 16.2825 16.7514 16.1522C16.6237 16.0219 16.5341 15.8591 16.4922 15.6815C16.4504 15.5039 16.4579 15.3183 16.514 15.1446L17.254 12.8496C17.363 12.5096 17.552 12.1996 17.805 11.9466L22.095 7.66365C22.4991 7.2597 23.0406 7.02299 23.6115 7.00075C24.1824 6.9785 24.7407 7.17237 25.175 7.54364" fill="#8A8A8A"/>
</svg>
