<svg width="128" height="128" viewBox="0 0 128 128" fill="none" xmlns="http://www.w3.org/2000/svg">
<g clip-path="url(#clip0_49_5289)">
<rect width="128" height="128" fill="#2684FF"/>
<mask id="mask0_49_5289" style="mask-type:alpha" maskUnits="userSpaceOnUse" x="0" y="0" width="128" height="128">
<path d="M128 0H0V128H128V0Z" fill="white"/>
</mask>
<g mask="url(#mask0_49_5289)">
<path d="M128 0H0V128H128V0Z" fill="#2684FF"/>
<path d="M101.421 74.8611C101.421 66.2131 95.025 59.0771 86.708 57.8771C87.596 55.2931 88.102 52.5311 88.102 49.6451C88.102 39.0391 80.237 28.9531 70.814 25.0381C63.924 26.7301 58.139 31.2301 54.752 37.2661C51.877 33.9091 47.615 31.7741 42.849 31.7741C34.191 31.7741 27.172 38.7931 27.172 47.4511C27.172 49.5011 27.577 51.4541 28.293 53.2501C19.264 54.9921 12.442 62.9271 12.442 72.4641C12.442 83.2771 21.208 92.0431 32.021 92.0431H88.259C95.569 89.6971 101.421 82.6071 101.421 74.8611Z" fill="white"/>
<path d="M70.35 65.6992H55.753C55.442 65.6992 55.189 65.9512 55.189 66.2632C55.189 69.0362 56.625 71.4742 58.794 72.8742C58.815 72.8882 58.837 72.9012 58.858 72.9152H58.874C60.085 73.6772 61.514 74.1252 63.051 74.1252C64.592 74.1252 66.026 73.6752 67.239 72.9082L67.243 72.9152C69.448 71.5222 70.913 69.0642 70.913 66.2632C70.914 65.9522 70.661 65.6992 70.35 65.6992Z" fill="#FF4E4A"/>
<path d="M51.722 61.9002C53.296 61.9002 54.572 60.6242 54.572 59.0502C54.572 57.4762 53.296 56.2002 51.722 56.2002C50.148 56.2002 48.872 57.4762 48.872 59.0502C48.872 60.6242 50.148 61.9002 51.722 61.9002Z" fill="#333333"/>
<path d="M74.379 61.9002C75.953 61.9002 77.229 60.6242 77.229 59.0502C77.229 57.4762 75.953 56.2002 74.379 56.2002C72.805 56.2002 71.529 57.4762 71.529 59.0502C71.529 60.6242 72.805 61.9002 74.379 61.9002Z" fill="#333333"/>
<path d="M100.817 57.8759C101.705 55.2919 102.211 52.5299 102.211 49.6439C102.211 35.6439 90.862 24.2939 76.861 24.2939C74.233 24.2939 71.705 24.7069 69.322 25.4509C79.617 28.6749 87.087 38.2859 87.087 49.6439C87.087 52.5299 86.582 55.2919 85.693 57.8759C94.009 59.0759 100.406 66.2119 100.406 74.8599C100.406 84.3489 92.714 92.0419 83.224 92.0419H98.347C107.836 92.0419 115.529 84.3499 115.529 74.8599C115.53 66.2119 109.133 59.0759 100.817 57.8759Z" fill="#B3D4FF"/>
</g>
</g>
<defs>
<clipPath id="clip0_49_5289">
<rect width="128" height="128" fill="white"/>
</clipPath>
</defs>
</svg>
