<svg width="128" height="128" viewBox="0 0 128 128" fill="none" xmlns="http://www.w3.org/2000/svg">
<g clip-path="url(#clip0_49_5259)">
<rect width="128" height="128" fill="#00C7E6"/>
<mask id="mask0_49_5259" style="mask-type:alpha" maskUnits="userSpaceOnUse" x="0" y="0" width="128" height="128">
<path d="M128 0H0V128H128V0Z" fill="white"/>
</mask>
<g mask="url(#mask0_49_5259)">
<path d="M128 0H0V128H128V0Z" fill="#00C7E6"/>
<path d="M64.81 37.2471H63.461H34.351L42.3 105.758C42.448 107.083 43.568 108.085 44.901 108.085H63.46H64.809H82.197C84.197 108.085 85.877 106.582 86.099 104.594L93.918 37.2461H64.81V37.2471Z" fill="#FF4E4A"/>
<path opacity="0.1" d="M63.461 37.5215H34.515V38.9825L42.301 106.033C42.449 107.358 43.569 108.36 44.902 108.36H63.461H64.81V37.5215H63.461Z" fill="#211618"/>
<path opacity="0.1" d="M40.809 92.9056H87.457L87.923 88.8916H40.344L40.809 92.9056Z" fill="#211618"/>
<path opacity="0.1" d="M93.483 41.1501L93.919 37.2471H64.81H63.461H34.352L34.787 41.1501H93.483Z" fill="#211618"/>
<path d="M68.729 52.9307H59.542H34.372C33.589 52.9307 32.981 53.6137 33.072 54.3917L37.301 87.7357C37.378 88.3947 37.937 88.8917 38.601 88.8917H59.542H68.729H89.67C90.334 88.8917 90.892 88.3947 90.97 87.7357L95.199 54.3917C95.29 53.6137 94.682 52.9307 93.899 52.9307H68.729Z" fill="white"/>
<path opacity="0.2" d="M38.601 88.8917H58.901V52.9307H34.371C33.588 52.9307 32.98 53.6137 33.071 54.3917L37.3 87.7357C37.378 88.3947 37.937 88.8917 38.601 88.8917Z" fill="#4AC6C6"/>
<path d="M64.193 82.3822C70.5255 82.3822 75.659 77.2487 75.659 70.9162C75.659 64.5837 70.5255 59.4502 64.193 59.4502C57.8605 59.4502 52.727 64.5837 52.727 70.9162C52.727 77.2487 57.8605 82.3822 64.193 82.3822Z" fill="#00B8D9"/>
<path d="M86.005 20.9246C85.532 20.0756 84.68 19.5566 83.761 19.5566H66.266H62.34H44.846C43.927 19.5566 43.075 20.0756 42.602 20.9246L37.802 29.5356H62.34H66.266H90.804L86.005 20.9246Z" fill="#2A5083"/>
<path d="M95.191 37.2472H33.416C31.704 37.2472 30.303 35.8462 30.303 34.1342V31.9362C30.303 30.2242 31.704 28.8232 33.416 28.8232H95.192C96.904 28.8232 98.305 30.2242 98.305 31.9362V34.1342C98.305 35.8462 96.904 37.2472 95.191 37.2472Z" fill="#194063"/>
<path opacity="0.1" d="M64.81 19.5566H62.34H44.845C43.926 19.5566 43.074 20.0756 42.601 20.9246L38.199 28.8226H34.514C32.197 28.8226 30.302 30.7186 30.302 33.0346C30.302 35.3516 32.198 37.2466 34.514 37.2466H64.81V19.5566Z" fill="#211618"/>
</g>
</g>
<defs>
<clipPath id="clip0_49_5259">
<rect width="128" height="128" fill="white"/>
</clipPath>
</defs>
</svg>
