<svg width="128" height="128" viewBox="0 0 128 128" fill="none" xmlns="http://www.w3.org/2000/svg">
<g clip-path="url(#clip0_49_5235)">
<mask id="mask0_49_5235" style="mask-type:alpha" maskUnits="userSpaceOnUse" x="0" y="0" width="128" height="128">
<path d="M128 0H0V128H128V0Z" fill="white"/>
</mask>
<g mask="url(#mask0_49_5235)">
<path d="M128 0H0V128H128V0Z" fill="#FF5630"/>
<path d="M65.172 112.667C92.05 112.667 113.839 90.8781 113.839 64C113.839 37.122 92.05 15.333 65.172 15.333C38.294 15.333 16.505 37.122 16.505 64C16.505 90.8781 38.294 112.667 65.172 112.667Z" fill="#253858"/>
<path d="M50.961 37.4837L50.952 37.4877L47.272 35.2437C46.241 34.6147 45.612 33.4947 45.612 32.2867V26.3927L45.622 26.3907L45.619 26.3857C41.92 28.1447 38.451 30.5477 35.389 33.6097C32.327 36.6717 29.924 40.1407 28.165 43.8397L28.306 43.9077H33.991C35.199 43.9077 36.319 44.5367 36.948 45.5677L38.927 48.8137C39.043 49.0037 39.211 49.1567 39.412 49.2527L61.074 59.6787L61.459 59.2937L50.961 37.4837Z" fill="white"/>
<path d="M79.585 89.5026L79.594 89.4986L83.274 91.7426C84.305 92.3716 84.934 93.4916 84.934 94.6996V100.594L84.924 100.596L84.927 100.601C88.626 98.8416 92.095 96.4386 95.157 93.3766C98.219 90.3146 100.622 86.8456 102.381 83.1466L102.24 83.0786H96.555C95.347 83.0786 94.227 82.4496 93.598 81.4186L91.619 78.1726C91.503 77.9826 91.335 77.8296 91.134 77.7336L69.472 67.3076L69.087 67.6926L79.585 89.5026Z" fill="white"/>
<path d="M65.172 84.3996C76.5071 84.3996 85.696 75.2107 85.696 63.8756C85.696 52.5405 76.5071 43.3516 65.172 43.3516C53.8369 43.3516 44.648 52.5405 44.648 63.8756C44.648 75.2107 53.8369 84.3996 65.172 84.3996Z" fill="#00C7E6"/>
<path d="M65.172 71.0051C69.1092 71.0051 72.301 67.8133 72.301 63.8761C72.301 59.9388 69.1092 56.7471 65.172 56.7471C61.2347 56.7471 58.043 59.9388 58.043 63.8761C58.043 67.8133 61.2347 71.0051 65.172 71.0051Z" fill="#6555C0"/>
</g>
</g>
<defs>
<clipPath id="clip0_49_5235">
<rect width="128" height="128" fill="white"/>
</clipPath>
</defs>
</svg>
