<svg width="16" height="16" viewBox="0 0 16 16" fill="none" xmlns="http://www.w3.org/2000/svg">
<path d="M11.3333 5.33292H10.6667V4.07292C10.6667 3.36567 10.3857 2.6874 9.88562 2.1873C9.38553 1.6872 8.70725 1.40625 8 1.40625C7.29276 1.40625 6.61448 1.6872 6.11439 2.1873C5.61429 2.6874 5.33334 3.36567 5.33334 4.07292V5.33292H4.66667C4.13624 5.33292 3.62753 5.54363 3.25246 5.9187C2.87739 6.29378 2.66667 6.80248 2.66667 7.33292V12.6662C2.66667 13.1967 2.87739 13.7054 3.25246 14.0805C3.62753 14.4555 4.13624 14.6662 4.66667 14.6662H11.3333C11.8638 14.6662 12.3725 14.4555 12.7476 14.0805C13.1226 13.7054 13.3333 13.1967 13.3333 12.6662V7.33292C13.3333 6.80248 13.1226 6.29378 12.7476 5.9187C12.3725 5.54363 11.8638 5.33292 11.3333 5.33292ZM6.66667 4.07292C6.6577 3.70978 6.79297 3.35788 7.04286 3.09425C7.29275 2.83061 7.63691 2.67672 8 2.66625C8.3631 2.67672 8.70726 2.83061 8.95715 3.09425C9.20704 3.35788 9.34231 3.70978 9.33334 4.07292V5.33292H6.66667V4.07292ZM12 12.6662C12 12.8431 11.9298 13.0126 11.8047 13.1377C11.6797 13.2627 11.5101 13.3329 11.3333 13.3329H4.66667C4.48986 13.3329 4.32029 13.2627 4.19527 13.1377C4.07024 13.0126 4.00001 12.8431 4.00001 12.6662V7.33292C4.00001 7.15611 4.07024 6.98654 4.19527 6.86151C4.32029 6.73649 4.48986 6.66625 4.66667 6.66625H11.3333C11.5101 6.66625 11.6797 6.73649 11.8047 6.86151C11.9298 6.98654 12 7.15611 12 7.33292V12.6662Z" fill="#899CC9"/>
<path d="M8 8C7.60444 8 7.21776 8.1173 6.88886 8.33706C6.55996 8.55682 6.30362 8.86918 6.15224 9.23463C6.00087 9.60009 5.96126 10.0022 6.03843 10.3902C6.1156 10.7781 6.30608 11.1345 6.58579 11.4142C6.86549 11.6939 7.22186 11.8844 7.60982 11.9616C7.99778 12.0387 8.39992 11.9991 8.76537 11.8478C9.13082 11.6964 9.44318 11.44 9.66294 11.1111C9.8827 10.7822 10 10.3956 10 10C10 9.46957 9.78929 8.96086 9.41422 8.58579C9.03914 8.21071 8.53043 8 8 8ZM8 10.6667C7.86815 10.6667 7.73925 10.6276 7.62962 10.5543C7.51999 10.4811 7.43454 10.3769 7.38408 10.2551C7.33362 10.1333 7.32042 9.99926 7.34614 9.86994C7.37187 9.74062 7.43536 9.62183 7.5286 9.5286C7.62183 9.43536 7.74062 9.37187 7.86994 9.34614C7.99926 9.32042 8.13331 9.33362 8.25512 9.38408C8.37694 9.43454 8.48106 9.51999 8.55431 9.62962C8.62757 9.73925 8.66667 9.86815 8.66667 10C8.66667 10.1768 8.59643 10.3464 8.47141 10.4714C8.34638 10.5964 8.17681 10.6667 8 10.6667Z" fill="#899CC9"/>
</svg>
