<svg width="128" height="128" viewBox="0 0 128 128" fill="none" xmlns="http://www.w3.org/2000/svg">
<g clip-path="url(#clip0_49_5124)">
<mask id="mask0_49_5124" style="mask-type:alpha" maskUnits="userSpaceOnUse" x="0" y="0" width="128" height="128">
<path d="M128 0H0V128H128V0Z" fill="white"/>
</mask>
<g mask="url(#mask0_49_5124)">
<path d="M128 0H0V128H128V0Z" fill="#2684FF"/>
<path d="M59.3 52.9996C63.7 51.1996 66.8 46.9996 66.8 41.9996C66.8 35.3996 61.5 30.0996 54.9 30.0996C52 30.0996 49.4 31.0996 47.4 32.7996L59.3 52.9996Z" fill="#FFC400"/>
<path d="M64.1 60.7004L61 63.8004C60.2 64.6004 58.9 64.6004 58.1 63.8004L54.8 60.5004C54 59.7004 52.7 59.7004 51.9 60.5004L48.2 64.2004C47.4 65.0004 46.1 65.0004 45.3 64.2004L42 60.9004C41.2 60.1004 39.9 60.1004 39.1 60.9004L36.1 63.9004C35.3 64.7004 34 64.7004 33.2 63.9004L30.2 61.0004C29.4 60.2004 28.1 60.2004 27.3 61.0004L24.5 63.8004C23.7 64.6004 22.4 64.6004 21.6 63.8004L18.4 60.6004C18.2 60.4004 18 60.3004 17.8 60.2004L-12.6 108.4C-4.39998 132.9 2.30003 134.8 29.3 135.9L63.8 127.9H66.6C78.1 127.4 88.8 123.9 98 118.1L64.1 60.7004Z" fill="#DEEBFF"/>
<path opacity="0.2" d="M78.2 67.0996L51.1 112.8V126.7C55.2 127.5 59.5 128 63.9 128C79.7 128 94.1 122.3 105.2 112.8L78.2 67.0996Z" fill="#39A9E2"/>
<path d="M122.3 86.1L111.9 68.5C111.4 68.6 111 68.7 110.7 69.1L107 72.8C106.2 73.6 104.9 73.6 104.1 72.8L100.8 69.5C100 68.7 98.7 68.7 97.9 69.5L94.9 72.5C94.1 73.3 92.8 73.3 92 72.5L89 69.5C88.2 68.7 86.9 68.7 86.1 69.5L83.3 72.3C82.5 73.1 81.2 73.1 80.4 72.3L77.2 69.1L46.6 120.3C45.2 122.6 44 130.9 46.6 131.5C50.5 132.4 57.3 131.3 61.5 131.5L64 130.5H66.5C91.5 129.5 135.5 143 139 115C139.143 113.855 122.9 87.1 122.3 86.1Z" fill="#B3D4FF"/>
<path opacity="0.4" d="M72.3 22.2002H29.2C24.9 22.2002 21.4 25.7002 21.4 30.0002C21.4 34.3002 24.9 37.8002 29.2 37.8002H72.3C76.6 37.8002 80.1 34.3002 80.1 30.0002C80.1 25.7002 76.6 22.2002 72.3 22.2002Z" fill="white"/>
<path d="M64.2 60.8L61.1 63.9C60.3 64.7 59 64.7 58.2001 63.9L54.9001 60.6C54.1001 59.8 52.8 59.8 52 60.6L48.3 64.3C47.5 65.1 46.2001 65.1 45.4001 64.3L42 60.9C41.7 60.6 41.2 60.4 40.8 60.3V131.5C47.2 134 89.1 123.9 98.2 118.1L64.2 60.8Z" fill="#B3D4FF"/>
<path d="M98.1 45.1004C96.6 42.5004 92.8 42.5004 91.2 45.1004L76.6 69.7004C76.8 69.8004 77 69.9004 77.2 70.1004L80.4 73.3004C81.2 74.1004 82.5 74.1004 83.3 73.3004L86.1 70.5004C86.9 69.7004 88.2 69.7004 89 70.5004L91.9 73.4004C92.7 74.2004 94 74.2004 94.8 73.4004L97.8 70.4004C98.6 69.6004 99.9 69.6004 100.7 70.4004L104 73.7004C104.8 74.5004 106.1 74.5004 106.9 73.7004L110.6 70.0004C111.1 69.5004 111.8 69.3004 112.5 69.4004L98.1 45.1004Z" fill="white"/>
<path d="M36.2001 29.0996L17.3 61.0996C17.7 61.1996 18.1 61.2996 18.4 61.5996L21.6 64.7996C22.4001 65.5996 23.7 65.5996 24.5 64.7996L27.3 61.9996C28.1 61.1996 29.4001 61.1996 30.2001 61.9996L33.1 64.8996C33.9 65.6996 35.2001 65.6996 36 64.8996L39 61.8996C39.8 61.0996 41.1001 61.0996 41.9001 61.8996L45.2001 65.1996C46 65.9996 47.3 65.9996 48.1 65.1996L51.8 61.4996C52.6 60.6996 53.9001 60.6996 54.7001 61.4996L58 64.7996C58.8 65.5996 60.1001 65.5996 60.9001 64.7996L64.1 61.5996L64.2 61.4996L44.6 28.0996C42.3 25.5996 38.1 25.9996 36.2001 29.0996Z" fill="white"/>
</g>
</g>
<defs>
<clipPath id="clip0_49_5124">
<rect width="128" height="128" fill="white"/>
</clipPath>
</defs>
</svg>
