<svg width="128" height="128" viewBox="0 0 128 128" fill="none" xmlns="http://www.w3.org/2000/svg">
<g clip-path="url(#clip0_49_5102)">
<rect width="128" height="128" fill="#6555C0"/>
<mask id="mask0_49_5102" style="mask-type:alpha" maskUnits="userSpaceOnUse" x="0" y="0" width="128" height="128">
<path d="M128 0H0V128H128V0Z" fill="white"/>
</mask>
<g mask="url(#mask0_49_5102)">
<path d="M91.1 18H36.6C31.7 18 27.8 22 27.8 26.8V99.5C27.8 104.4 31.8 108.3 36.6 108.3H91C95.9 108.3 99.8 104.3 99.8 99.5V26.9C99.9 22 95.9 18 91.1 18Z" fill="white"/>
<path d="M89.0999 40.5998H43.5999C41.9999 40.5998 40.7 39.2998 40.7 37.6998C40.7 36.0998 41.9999 34.7998 43.5999 34.7998H89.0999C90.6999 34.7998 92 36.0998 92 37.6998C92 39.2998 90.6999 40.5998 89.0999 40.5998Z" fill="#D3E0EA"/>
<path d="M89.0999 53.5002H43.5999C41.9999 53.5002 40.7 52.2002 40.7 50.6002C40.7 49.0002 41.9999 47.7002 43.5999 47.7002H89.0999C90.6999 47.7002 92 49.0002 92 50.6002C92 52.2002 90.6999 53.5002 89.0999 53.5002Z" fill="#D3E0EA"/>
<path d="M61.0999 66.3996H43.5999C41.9999 66.3996 40.7 65.0996 40.7 63.4996C40.7 61.8996 41.9999 60.5996 43.5999 60.5996H61.0999C62.6999 60.5996 64 61.8996 64 63.4996C64 65.0996 62.6999 66.3996 61.0999 66.3996Z" fill="#D3E0EA"/>
<path d="M32.6 92.3996H23.7001C22.1001 92.3996 20.8 91.0996 20.8 89.4996C20.8 87.8996 22.1001 86.5996 23.7001 86.5996H32.6C34.2 86.5996 35.5 87.8996 35.5 89.4996C35.5 91.0996 34.2 92.3996 32.6 92.3996Z" fill="#2A5083"/>
<path d="M32.6 75.2004H23.7001C22.1001 75.2004 20.8 73.9004 20.8 72.3004C20.8 70.7004 22.1001 69.4004 23.7001 69.4004H32.6C34.2 69.4004 35.5 70.7004 35.5 72.3004C35.5 73.9004 34.2 75.2004 32.6 75.2004Z" fill="#2A5083"/>
<path d="M32.6 57.8996H23.7001C22.1001 57.8996 20.8 56.5996 20.8 54.9996C20.8 53.3996 22.1001 52.0996 23.7001 52.0996H32.6C34.2 52.0996 35.5 53.3996 35.5 54.9996C35.5 56.5996 34.2 57.8996 32.6 57.8996Z" fill="#2A5083"/>
<path d="M32.6 40.5998H23.7001C22.1001 40.5998 20.8 39.2998 20.8 37.6998C20.8 36.0998 22.1001 34.7998 23.7001 34.7998H32.6C34.2 34.7998 35.5 36.0998 35.5 37.6998C35.5 39.2998 34.2 40.5998 32.6 40.5998Z" fill="#2A5083"/>
<path d="M98 33.5998C92.8 30.8998 87.5 30.6998 86.2 33.1998L81.9 41.3998L100.7 51.2998L105 42.9998C106.3 40.5998 103.2 36.2998 98 33.5998Z" fill="#FF4E4A"/>
<path d="M105.3 41.9996C105.5 39.4996 102.5 35.9996 98 33.5996L91.3 46.2996L100.7 51.1996L101.3 50.0996L105 42.9996C105.2 42.6996 105.3 42.3996 105.3 41.9996Z" fill="#D63E3E"/>
<path d="M79.4947 45.8819L98.3601 55.7715L101.285 50.1916L82.4198 40.302L79.4947 45.8819Z" fill="#EBF2F9"/>
<path d="M92.1 52.5004L85.8 49.2004L79.5 45.9004L60.6 82.0004L66.9 85.3004L73.2 88.6004L79.4 91.9004L98.4 55.7004L92.1 52.5004Z" fill="#FFC400"/>
<path d="M71.9 84.5L71.7 83.8L66.9 85.3L65.4 80.5L60.6 82L60.5 82.2C60.3 82.5 60.2 82.9 60.3 83.3L61 93.3L66 95.9L71.9 84.5Z" fill="#FFD49B"/>
<path d="M92.1 52.3998L88.9 50.7998L70 86.8998L73.2 88.5998L79.4 91.7998L81.8 87.1998L98.3 55.6998L92.1 52.3998Z" fill="#FF991F"/>
<path d="M69.9 97.9998L78.6 92.8998C78.9 92.6998 79.2 92.3998 79.3 92.0998L79.4 91.8998L77.9 87.0998L73.2 88.5998L71.7 83.7998L65.3 95.5998C65.9 95.9998 69.2 98.3998 69.9 97.9998Z" fill="#E2AD79"/>
<path d="M65.3001 95.5996L62.3 101.1C62.4 101.2 62.6001 101.3 62.7001 101.3H62.8C63 101.4 63.1 101.4 63.3 101.4H63.4001H63.9001H64C64.2 101.4 64.4 101.3 64.6 101.2L70 97.9996L65.3001 95.5996Z" fill="#173E68"/>
<path d="M61 93.2998L61.4 99.4998C61.4 100.2 61.8 100.7 62.3 101L65.3 95.4998L61 93.2998Z" fill="#2A5083"/>
</g>
</g>
<defs>
<clipPath id="clip0_49_5102">
<rect width="128" height="128" fill="white"/>
</clipPath>
</defs>
</svg>
