<svg width="128" height="128" viewBox="0 0 128 128" fill="none" xmlns="http://www.w3.org/2000/svg">
<g clip-path="url(#clip0_49_5086)">
<rect width="128" height="128" fill="#00C7E6"/>
<mask id="mask0_49_5086" style="mask-type:alpha" maskUnits="userSpaceOnUse" x="0" y="0" width="128" height="128">
<path d="M128 0H0V128H128V0Z" fill="white"/>
</mask>
<g mask="url(#mask0_49_5086)">
<path d="M128 0H0V128H128V0Z" fill="#00C7E6"/>
<path d="M68.101 74.3242L44.671 97.7542L73.279 130.588C73.279 130.588 92.075 138.572 96.55 136.575L68.101 74.3242Z" fill="#2A5083"/>
<path d="M84.991 80.5526L92.112 87.6736C93.444 89.0056 93.444 91.1856 92.112 92.5176L75.49 109.141C72.199 112.432 66.815 112.432 63.525 109.141C60.234 105.85 60.234 100.466 63.525 97.1756L80.147 80.5536C81.479 79.2206 83.659 79.2206 84.991 80.5526Z" fill="#DEEBFF"/>
<path opacity="0.2" d="M84.991 80.5526L88.552 84.1136L63.525 109.141C60.234 105.85 60.234 100.466 63.525 97.1756L80.147 80.5536C81.479 79.2206 83.659 79.2206 84.991 80.5526Z" fill="#194063"/>
<path d="M-0.497985 55.2831L28.325 80.9371L51.755 57.5071L-3.35999 33.5391C-3.35999 33.5391 0.359015 49.0351 -0.497985 55.2831Z" fill="#2A5083"/>
<path d="M101.639 24.7823C95.065 18.2073 79.54 23.0713 66.966 35.6463L-3.79997 104.412C-0.709967 109.906 -7.83497 125.894 -3.32397 130.231L102.759 26.1483C102.431 25.6593 102.059 25.2013 101.639 24.7823Z" fill="white"/>
<path d="M-2.53601 128.037C1.43999 132.069 9.94999 132.567 14.874 135.437L90.856 59.4553C103.431 46.8803 108.295 31.3562 101.721 24.7812L-2.53601 128.037Z" fill="#DEEBFF"/>
<path d="M45.639 41.2011L38.518 34.0801C37.186 32.7481 35.006 32.7481 33.674 34.0801L17.051 50.7021C13.76 53.9931 13.76 59.3771 17.051 62.6671C20.342 65.9581 25.726 65.9581 29.016 62.6671L45.638 46.0451C46.971 44.7131 46.971 42.5331 45.639 41.2011Z" fill="white"/>
<path opacity="0.2" d="M45.639 41.2006L42.078 37.6396L17.051 62.6666C20.342 65.9576 25.726 65.9576 29.016 62.6666L45.638 46.0446C46.971 44.7126 46.971 42.5326 45.639 41.2006Z" fill="#DEEBFF"/>
<path opacity="0.2" d="M71.965 63.5737L63.024 54.6327C61.318 52.9267 61.318 50.1367 63.024 48.4307L65.099 46.3557C66.805 44.6497 69.595 44.6497 71.301 46.3557L80.242 55.2967C81.948 57.0027 81.948 59.7927 80.242 61.4987L78.167 63.5737C76.461 65.2797 73.67 65.2797 71.965 63.5737Z" fill="#194063"/>
<path d="M71.905 60.1067L71.193 59.3947C70.607 58.8087 70.607 57.8507 71.193 57.2657L73.946 54.5127C74.532 53.9267 75.49 53.9267 76.075 54.5127L76.788 55.2247C77.374 55.8107 77.374 56.7687 76.788 57.3537L74.035 60.1067C73.449 60.6927 72.491 60.6927 71.905 60.1067Z" fill="#194063"/>
<path d="M66.965 55.1673L66.252 54.4553C65.666 53.8693 65.666 52.9113 66.252 52.3263L69.005 49.5733C69.591 48.9873 70.549 48.9873 71.134 49.5733L71.846 50.2853C72.432 50.8713 72.432 51.8293 71.846 52.4143L69.093 55.1673C68.509 55.7523 67.55 55.7523 66.965 55.1673Z" fill="#194063"/>
</g>
</g>
<defs>
<clipPath id="clip0_49_5086">
<rect width="128" height="128" fill="white"/>
</clipPath>
</defs>
</svg>
