<svg width="128" height="128" viewBox="0 0 128 128" fill="none" xmlns="http://www.w3.org/2000/svg">
<g clip-path="url(#clip0_49_5074)">
<rect width="128" height="128" fill="#00C7E6"/>
<mask id="mask0_49_5074" style="mask-type:alpha" maskUnits="userSpaceOnUse" x="0" y="0" width="128" height="128">
<path d="M128 0H0V128H128V0Z" fill="white"/>
</mask>
<g mask="url(#mask0_49_5074)">
<path d="M128 0H0V128H128V0Z" fill="#00C7E6"/>
<path d="M69.84 38.7334H22.659C19.222 38.7334 16.41 41.5454 16.41 44.9824V79.2064C16.41 82.6434 19.222 85.4554 22.659 85.4554H69.84V38.7334Z" fill="#5243AA"/>
<path d="M109.949 73.7253H98.375C96.725 73.7253 95.375 72.3753 95.375 70.7253V54.5723C95.375 52.9223 96.725 51.5723 98.375 51.5723H109.949C111.599 51.5723 112.949 52.9223 112.949 54.5723V70.7253C112.949 72.3753 111.599 73.7253 109.949 73.7253Z" fill="white"/>
<path d="M100.319 38.7334H100.007H96.223H95.91H73.936H73.624H69.84H69.528V85.4544H69.84H73.624H73.936H95.91H96.222H100.006H100.318C103.755 85.4544 106.567 82.6424 106.567 79.2054V44.9824C106.568 41.5454 103.756 38.7334 100.319 38.7334Z" fill="#FFBD17"/>
<path d="M106.255 62.0439H69.84H69.528V85.4049H69.84H71.084H71.396H73.623H73.935H95.91H96.222H100.006H100.318C103.755 85.4049 106.567 82.5929 106.567 79.1559V62.0439H106.255Z" fill="#F2900F"/>
<path d="M88.8299 71.5876H87.577C86.528 71.5876 85.6689 70.7286 85.6689 69.6796V54.5076C85.6689 53.4586 86.528 52.5996 87.577 52.5996H88.8299C89.8789 52.5996 90.7379 53.4586 90.7379 54.5076V69.6796C90.7379 70.7286 89.8789 71.5876 88.8299 71.5876Z" fill="#403294"/>
<path d="M78.71 62.7196V61.4666C78.71 60.4176 79.569 59.5586 80.618 59.5586H95.79C96.839 59.5586 97.698 60.4176 97.698 61.4666V62.7196C97.698 63.7686 96.839 64.6276 95.79 64.6276H80.618C79.569 64.6276 78.71 63.7696 78.71 62.7196Z" fill="#403294"/>
<path d="M16.411 62.0439V79.1559C16.411 82.5929 19.223 85.4049 22.66 85.4049H69.528V62.0439H16.411Z" fill="#403294"/>
</g>
</g>
<defs>
<clipPath id="clip0_49_5074">
<rect width="128" height="128" fill="white"/>
</clipPath>
</defs>
</svg>
