<svg width="128" height="128" viewBox="0 0 128 128" fill="none" xmlns="http://www.w3.org/2000/svg">
<g clip-path="url(#clip0_49_5065)">
<mask id="mask0_49_5065" style="mask-type:alpha" maskUnits="userSpaceOnUse" x="0" y="0" width="128" height="128">
<path d="M128 0H0V128H128V0Z" fill="white"/>
</mask>
<g mask="url(#mask0_49_5065)">
<path d="M128 0H0V128H128V0Z" fill="#6555C0"/>
<path d="M80.078 106.477C88.6804 106.477 95.654 99.5036 95.654 90.9012C95.654 82.2988 88.6804 75.3252 80.078 75.3252C71.4756 75.3252 64.502 82.2988 64.502 90.9012C64.502 99.5036 71.4756 106.477 80.078 106.477Z" fill="#8777D9"/>
<path d="M47.719 50.7653C56.3214 50.7653 63.295 43.7917 63.295 35.1893C63.295 26.5869 56.3214 19.6133 47.719 19.6133C39.1166 19.6133 32.143 26.5869 32.143 35.1893C32.143 43.7917 39.1166 50.7653 47.719 50.7653Z" fill="#8777D9"/>
<path d="M28.744 77.1025C26.275 77.7505 23.848 78.3945 21.416 79.0215C19.764 79.4475 18.771 78.4965 19.196 76.8245C21.493 67.7875 23.809 58.7555 26.143 49.7285C26.628 47.8525 27.858 47.5415 29.236 48.9425C34.385 54.1775 39.513 59.4345 44.647 64.6845C46 66.0675 47.359 67.4445 48.697 68.8415C49.954 70.1555 49.625 71.4365 47.894 71.9285C45.556 72.5925 43.207 73.2195 40.494 73.9635C41.816 75.9405 42.882 77.8745 44.268 79.5425C48.864 85.0775 54.771 88.1955 61.979 88.8615C67.472 89.3685 72.51 88.0475 77.305 85.4525C81.493 83.1855 86.418 86.1665 86.309 90.8875C86.258 93.0965 85.226 94.8575 83.315 95.9555C76.196 100.042 68.529 101.829 60.362 100.828C45.693 99.0295 35.305 91.2905 29.142 77.8665C29.029 77.6215 28.893 77.3875 28.744 77.1025Z" fill="#00C7E6"/>
<path d="M87.743 52.1939C85.932 48.3819 83.531 45.3049 80.411 42.7929C75.825 39.0999 70.536 37.2259 64.692 37.0899C60.04 36.9819 55.634 38.1369 51.56 40.4329C49.865 41.3879 48.107 41.7529 46.232 41.0789C43.804 40.2059 42.401 38.4299 42.155 35.9039C41.912 33.4149 42.956 31.4039 45.122 30.1309C50.128 27.1889 55.554 25.4329 61.344 25.1059C73.508 24.4199 83.875 28.4579 92.276 37.3419C95.176 40.4079 97.399 43.9379 99.1 47.7979C99.272 48.1869 99.45 48.5729 99.646 49.0049C102.119 48.3489 104.506 47.7079 106.898 47.0839C108.736 46.6049 109.663 47.5789 109.176 49.4909C107.691 55.3249 106.19 61.1549 104.701 66.9879C103.932 69.9999 103.177 73.0149 102.408 76.0269C102.202 76.8339 102.009 77.8489 101.046 77.8779C100.384 77.8979 99.547 77.4609 99.056 76.9639C92.588 70.4219 86.164 63.8369 79.739 57.2529C78.441 55.9229 78.808 54.6389 80.638 54.1219C82.941 53.4709 85.256 52.8659 87.743 52.1939Z" fill="white"/>
</g>
</g>
<defs>
<clipPath id="clip0_49_5065">
<rect width="128" height="128" fill="white"/>
</clipPath>
</defs>
</svg>
