<svg width="128" height="128" viewBox="0 0 128 128" fill="none" xmlns="http://www.w3.org/2000/svg">
<g clip-path="url(#clip0_49_5038)">
<mask id="mask0_49_5038" style="mask-type:alpha" maskUnits="userSpaceOnUse" x="0" y="0" width="128" height="128">
<path d="M128 0H0V128H128V0Z" fill="white"/>
</mask>
<g mask="url(#mask0_49_5038)">
<path d="M128 0H0V128H128V0Z" fill="#253858"/>
<path d="M27.2 83.0998C27.6 80.1998 27.6 74.6998 34 64.7998C23.2 67.3998 16.4 74.9998 12.9 80.4998C10.4 84.6998 14.1 84.3998 15.9 83.9998C16.2 83.8998 16.4 83.8998 16.7 83.7998H16.8C21.3 82.7998 24.8 83.3998 27.5 84.3998C27.1 83.6998 27.2 83.0998 27.2 83.0998Z" fill="white"/>
<path d="M43.7 100.3C44.8 103 45.4 106.6 44.4 111.1C44.4 111.1 44.4 111.1 44.4 111.2C44.3 111.5 44.3 111.7 44.2 112C43.8 113.8 43.5 117.5 47.7 115C53.5 111.2 61.7 103.8 63.8 91.7998C53.1 99.2998 47.1 99.8998 43.7 100.3Z" fill="#D3E0EA"/>
<path d="M95.2 101.8C97.3539 101.8 99.1 100.054 99.1 97.9C99.1 95.7461 97.3539 94 95.2 94C93.0461 94 91.3 95.7461 91.3 97.9C91.3 100.054 93.0461 101.8 95.2 101.8Z" fill="#505F79"/>
<path d="M107 72.8996C109.154 72.8996 110.9 71.1535 110.9 68.9996C110.9 66.8457 109.154 65.0996 107 65.0996C104.846 65.0996 103.1 66.8457 103.1 68.9996C103.1 71.1535 104.846 72.8996 107 72.8996Z" fill="#505F79"/>
<path d="M53.7 25.0002C55.8539 25.0002 57.6 23.2541 57.6 21.1002C57.6 18.9463 55.8539 17.2002 53.7 17.2002C51.5461 17.2002 49.8 18.9463 49.8 21.1002C49.8 23.2541 51.5461 25.0002 53.7 25.0002Z" fill="#505F79"/>
<path d="M21.1 48.3996C23.2539 48.3996 25 46.6535 25 44.4996C25 42.3457 23.2539 40.5996 21.1 40.5996C18.9461 40.5996 17.2 42.3457 17.2 44.4996C17.2 46.6535 18.9461 48.3996 21.1 48.3996Z" fill="#505F79"/>
<path d="M73.7 110.4C75.8539 110.4 77.6 108.654 77.6 106.5C77.6 104.346 75.8539 102.6 73.7 102.6C71.5461 102.6 69.8 104.346 69.8 106.5C69.8 108.654 71.5461 110.4 73.7 110.4Z" fill="#505F79"/>
<path d="M41.4 99.7002C41.5 99.8002 41.6 99.9002 41.8 99.9002C41.6 99.8002 41.5 99.8002 41.4 99.7002Z" fill="#4AC6C6"/>
<path d="M34.2 92.6L90.1 36.7L80 26.5C70.9 29.3 61.4 33.5 49.8 45.1C26.6 68.3 26.9 78.7 26.3 83.1C26.3 83.1 26.2 84.6 27.5 85.9L34.2 92.6Z" fill="#00B8D9"/>
<path d="M40.9 99.2998C41 99.3998 41.1 99.4998 41.2 99.5998C41.1 99.3998 41 99.2998 40.9 99.2998Z" fill="#4AC6C6"/>
<path d="M103.1 28.1996C103.1 27.6996 103.1 27.1996 103 26.7996C102.9 26.2996 102.8 25.8996 102.7 25.5996C102.6 25.2996 102.5 25.0996 102.4 24.8996C102.3 24.7996 102.3 24.6996 102.2 24.5996L90.2 36.5996L100.3 46.6996C102.1 41.5996 102.7 37.1996 102.9 33.5996C103 31.5996 103 29.6996 103.1 28.1996Z" fill="#C5DEEB"/>
<path d="M90 36.7002L25.2 101.5C26.8 103.1 32 100.7 37.5 96.0002L40.7 99.2002L40.8 99.3002C41.1 99.6002 42.4 100.7 43.9 100.5C48.6 99.8002 58.9 99.8002 81.6 77.1002C93.2 65.5002 97.4 56.0002 100.2 46.9002L90 36.7002Z" fill="#008DA6"/>
<path d="M101.9 24.4005C101.5 24.1005 100.5 23.6005 98.6 23.7005H98.2C94.1 23.8005 87.9 23.8005 80 26.5005L90.1 36.6005L102.1 24.6005C102 24.5005 102 24.5005 101.9 24.4005Z" fill="white"/>
<path d="M25.3 101.5C25.4 101.6 25.5 101.7 25.7 101.8C25.7 101.8 25.8 101.8 25.9 101.9C26 101.9 26.1 102 26.2 102H26.4H26.8H27.1H27.5H27.8C27.9 102 28.1 101.9 28.3 101.9C28.5 101.8 28.7 101.8 29 101.7C29.1 101.7 29.3 101.6 29.4 101.6C29.6 101.5 29.8 101.5 29.9 101.4C30 101.4 30.1 101.3 30.2 101.3C30.4 101.2 30.6 101.1 30.8 101C30.9 101 31 100.9 31.1 100.9C31.3 100.8 31.6 100.7 31.8 100.5C31.9 100.5 31.9 100.4 32 100.4C33.5 99.6002 35.1 98.4002 36.7 97.1002C37 96.8002 37.4 96.5002 37.7 96.3002C38.8 95.4002 39.9 94.4002 41 93.3002C47.7 86.6002 51.5 79.7002 49.6 77.7002L25.3 101.5Z" fill="#C5DEEB"/>
<path d="M49.6 77.4C47.7 75.5 40.7 79.3 34 86C27.3 92.7 23.5 99.6 25.4 101.6L49.6 77.4Z" fill="white"/>
<path d="M25.7 101.6C25.6 101.6 25.6 101.5 25.5 101.5C25.6 101.5 25.6 101.6 25.7 101.6Z" fill="white"/>
<path d="M68.8 65.3004C73.3287 65.3004 77 61.6291 77 57.1004C77 52.5717 73.3287 48.9004 68.8 48.9004C64.2712 48.9004 60.6 52.5717 60.6 57.1004C60.6 61.6291 64.2712 65.3004 68.8 65.3004Z" fill="white"/>
<path d="M76.7 49.2004C72.3 44.8004 65.2 44.8004 60.9 49.2004C56.6 53.6004 56.5 60.7004 60.9 65.0004C65.3 69.3004 72.4 69.4004 76.7 65.0004C81 60.6004 81.1 53.6004 76.7 49.2004ZM63.8 62.1004C61.1 59.4004 61.1 54.9004 63.8 52.2004C66.5 49.5004 71 49.5004 73.7 52.2004C76.4 54.9004 76.4 59.4004 73.7 62.1004C71 64.8004 66.6 64.8004 63.8 62.1004Z" fill="#253858"/>
</g>
</g>
<defs>
<clipPath id="clip0_49_5038">
<rect width="128" height="128" fill="white"/>
</clipPath>
</defs>
</svg>
