<svg width="128" height="128" viewBox="0 0 128 128" fill="none" xmlns="http://www.w3.org/2000/svg">
<g clip-path="url(#clip0_49_5024)">
<mask id="mask0_49_5024" style="mask-type:alpha" maskUnits="userSpaceOnUse" x="0" y="0" width="128" height="128">
<path d="M128 0H0V128H128V0Z" fill="white"/>
</mask>
<g mask="url(#mask0_49_5024)">
<path d="M128 0H0V128H128V0Z" fill="#6555C0"/>
<path d="M63.218 109.557C85.6822 109.557 103.893 91.3462 103.893 68.882C103.893 46.4179 85.6822 28.207 63.218 28.207C40.7538 28.207 22.543 46.4179 22.543 68.882C22.543 91.3462 40.7538 109.557 63.218 109.557Z" fill="white"/>
<path d="M81.832 41.4493H45.294V23.2373C45.294 21.5803 46.637 20.2373 48.294 20.2373H78.832C80.489 20.2373 81.832 21.5803 81.832 23.2373V41.4493Z" fill="white"/>
<path opacity="0.1" d="M63.127 99.6861C80.1396 99.6861 93.931 85.8947 93.931 68.8821C93.931 51.8696 80.1396 38.0781 63.127 38.0781C46.1144 38.0781 32.323 51.8696 32.323 68.8821C32.323 85.8947 46.1144 99.6861 63.127 99.6861Z" fill="#7F4CBF"/>
<path d="M72.24 32.8779H54.886C53.229 32.8779 51.886 31.5349 51.886 29.8779V14.7969C51.886 13.1399 53.229 11.7969 54.886 11.7969H72.24C73.897 11.7969 75.24 13.1399 75.24 14.7969V29.8779C75.24 31.5349 73.897 32.8779 72.24 32.8779Z" fill="#00C7E6"/>
<path d="M64.255 68.882C64.255 68.882 31.745 53.289 32.567 71.881C33.22 86.665 59.937 83.747 59.937 83.747L64.255 68.882Z" fill="#DE350A"/>
<path d="M62.085 66.3543C79.394 51.8963 93.542 70.8203 93.542 70.8203L93.69 71.0153C92.594 86.9623 79.32 99.5603 63.094 99.5603C47.163 99.5603 34.071 87.4163 32.564 71.8803C33.191 72.3693 45.309 80.3673 62.085 66.3543Z" fill="#FF5630"/>
<path opacity="0.5" d="M76.923 20.2373H50.348V35.1293H76.923V20.2373Z" fill="white"/>
<path d="M61.798 53.9515C65.1156 53.9515 67.805 51.2621 67.805 47.9445C67.805 44.6269 65.1156 41.9375 61.798 41.9375C58.4804 41.9375 55.791 44.6269 55.791 47.9445C55.791 51.2621 58.4804 53.9515 61.798 53.9515Z" fill="#FF5630"/>
<path d="M74.681 56.8174C76.7758 56.8174 78.474 55.1193 78.474 53.0244C78.474 50.9296 76.7758 49.2314 74.681 49.2314C72.5862 49.2314 70.888 50.9296 70.888 53.0244C70.888 55.1193 72.5862 56.8174 74.681 56.8174Z" fill="#FF5630"/>
</g>
</g>
<defs>
<clipPath id="clip0_49_5024">
<rect width="128" height="128" fill="white"/>
</clipPath>
</defs>
</svg>
