<svg width="128" height="128" viewBox="0 0 128 128" fill="none" xmlns="http://www.w3.org/2000/svg">
<g clip-path="url(#clip0_49_4996)">
<mask id="mask0_49_4996" style="mask-type:alpha" maskUnits="userSpaceOnUse" x="0" y="0" width="128" height="128">
<path d="M128 0H0V128H128V0Z" fill="white"/>
</mask>
<g mask="url(#mask0_49_4996)">
<path d="M128 0H0V128H128V0Z" fill="#FF5630"/>
<path d="M80.0389 20.2697C79.7869 20.0857 79.5 19.9507 79.1889 19.8697C79.1119 19.8367 79.0389 19.7957 78.9619 19.7627C78.7919 19.7977 78.674 19.7787 78.5509 19.7787C77.1499 19.7787 76.0139 20.9147 76.0139 22.3157C76.0139 22.4387 76.033 22.5567 76.0499 22.6747L76.0139 52.6827C76.0139 53.5797 75.5939 54.4247 74.8799 54.9657L65.7209 61.9077C64.7029 62.6787 63.7469 61.9077 63.7469 61.9077L54.5879 54.9657C53.8729 54.4237 53.4529 53.5787 53.4529 52.6827V22.4377C53.4529 20.9147 52.3169 19.7787 50.9159 19.7787C50.2689 19.7787 49.6839 20.0287 49.2359 20.4277C37.0579 26.2477 28.6219 38.6347 28.6219 53.0317C28.6219 64.3057 33.7819 74.3737 41.8669 81.0067C42.2689 81.3367 42.675 81.6547 43.087 81.9647C45.3799 83.9667 50.1099 89.1687 50.1099 98.0357V128.459C54.5709 129.444 59.2009 128.98 63.9589 128.98C69.3089 128.98 74.5019 130.313 79.4689 129.076V97.5157C79.6499 89.1577 84.0269 84.1467 86.3209 82.0967C95.2049 75.5057 100.964 64.9417 100.964 53.0307C100.964 38.5107 92.3869 26.0247 80.0389 20.2697Z" fill="#F0F4F7"/>
<path d="M63.959 127.982C65.608 127.982 67.236 127.898 68.852 127.774V98.7651C68.852 96.5331 67.026 94.7061 64.793 94.7061C62.561 94.7061 60.734 96.5321 60.734 98.7651V127.892C61.803 127.946 62.876 127.982 63.959 127.982Z" fill="#BACBD6"/>
<path d="M64.7291 87.1546C68.9789 87.1546 72.4241 83.7095 72.4241 79.4596C72.4241 75.2098 68.9789 71.7646 64.7291 71.7646C60.4792 71.7646 57.0341 75.2098 57.0341 79.4596C57.0341 83.7095 60.4792 87.1546 64.7291 87.1546Z" fill="#BACBD6"/>
<path opacity="0.2" d="M80.0389 20.2804C79.7869 20.0964 79.4999 19.9614 79.1889 19.8804C79.1119 19.8474 79.0389 19.8064 78.9619 19.7734C78.7919 19.8084 78.6739 19.7894 78.5509 19.7894C77.1499 19.7894 76.0139 20.9254 76.0139 22.3264C76.0139 22.4494 76.0329 22.5674 76.0499 22.6854L76.0139 52.6934C76.0139 53.5904 75.5939 54.4354 74.8799 54.9764L65.7209 61.9184C65.3939 62.1664 65.0779 62.2454 64.7939 62.2514V127.969C69.8489 127.904 74.7619 130.259 79.4699 129.086V97.5264C79.6509 89.1684 84.0279 84.1574 86.3219 82.1074C95.2059 75.5164 100.965 64.9524 100.965 53.0414C100.964 38.5224 92.3869 26.0354 80.0389 20.2804Z" fill="#00425B"/>
</g>
</g>
<defs>
<clipPath id="clip0_49_4996">
<rect width="128" height="128" fill="white"/>
</clipPath>
</defs>
</svg>
