<svg width="128" height="128" viewBox="0 0 128 128" fill="none" xmlns="http://www.w3.org/2000/svg">
<g clip-path="url(#clip0_49_4985)">
<rect width="128" height="128" fill="#6555C0"/>
<mask id="mask0_49_4985" style="mask-type:alpha" maskUnits="userSpaceOnUse" x="0" y="0" width="128" height="128">
<path d="M128 0H0V128H128V0Z" fill="white"/>
</mask>
<g mask="url(#mask0_49_4985)">
<path d="M128 0H0V128H128V0Z" fill="#6555C0"/>
<path d="M66.201 58.4414L43.821 86.7564C42.91 87.9084 43.731 89.6034 45.2 89.6034H55.583C57.092 89.6034 57.899 91.3794 56.907 92.5164L45.135 106.001C43.81 107.519 45.666 109.709 47.381 108.652L83.527 86.3744C85.035 85.4454 84.376 83.1214 82.605 83.1214H71.031C69.457 83.1214 68.677 81.2114 69.801 80.1094L89.514 60.7864C90.638 59.6844 89.858 57.7744 88.284 57.7744H67.58C67.042 57.7734 66.534 58.0194 66.201 58.4414Z" fill="#FFC400"/>
<path d="M97.187 61.1668C97.187 53.6828 91.652 47.5078 84.456 46.4698C85.225 44.2338 85.662 41.8438 85.662 39.3458C85.662 30.1678 78.856 21.4398 70.702 18.0518C64.739 19.5158 59.734 23.4098 56.803 28.6338C54.315 25.7288 50.627 23.8818 46.503 23.8818C39.011 23.8818 32.937 29.9548 32.937 37.4478C32.937 39.2218 33.287 40.9118 33.907 42.4658C26.093 43.9728 20.19 50.8398 20.19 59.0928C20.19 68.4498 27.775 76.0348 37.132 76.0348H85.797C92.124 74.0058 97.187 67.8698 97.187 61.1668Z" fill="white"/>
<path d="M96.665 46.4701C97.434 44.2341 97.871 41.8441 97.871 39.3471C97.871 27.2321 88.05 17.4111 75.935 17.4111C73.661 17.4111 71.473 17.7691 69.411 18.4121C78.319 21.2021 84.784 29.5191 84.784 39.3471C84.784 41.8441 84.347 44.2341 83.578 46.4701C90.774 47.5081 96.309 53.6831 96.309 61.1671C96.309 69.3781 89.652 76.0351 81.441 76.0351H94.528C102.739 76.0351 109.396 69.3781 109.396 61.1671C109.396 53.6841 103.861 47.5091 96.665 46.4701Z" fill="#B3D4FF"/>
<path opacity="0.5" d="M97.66 92.3921C95.813 92.3921 94.302 90.8811 94.302 89.0341V83.3551C94.302 81.5081 95.813 79.9971 97.66 79.9971C99.507 79.9971 101.018 81.5081 101.018 83.3551V89.0341C101.019 90.8811 99.507 92.3921 97.66 92.3921Z" fill="white"/>
<path opacity="0.5" d="M84.805 105.659C82.958 105.659 81.447 104.148 81.447 102.301V96.6217C81.447 94.7747 82.958 93.2637 84.805 93.2637C86.652 93.2637 88.163 94.7747 88.163 96.6217V102.301C88.163 104.148 86.652 105.659 84.805 105.659Z" fill="white"/>
<path opacity="0.5" d="M31.325 90.438C29.478 90.438 27.967 88.927 27.967 87.08V81.401C27.967 79.554 29.478 78.043 31.325 78.043C33.172 78.043 34.683 79.554 34.683 81.401V87.08C34.683 88.927 33.172 90.438 31.325 90.438Z" fill="white"/>
</g>
</g>
<defs>
<clipPath id="clip0_49_4985">
<rect width="128" height="128" fill="white"/>
</clipPath>
</defs>
</svg>
