<svg width="64" height="64" viewBox="0 0 64 64" fill="none" xmlns="http://www.w3.org/2000/svg">
<path d="M32.0002 5.33301C26.726 5.33301 21.5703 6.89698 17.185 9.82715C12.7997 12.7573 9.38172 16.9221 7.36339 21.7948C5.34505 26.6675 4.81696 32.0293 5.8459 37.2021C6.87484 42.3749 9.41459 47.1265 13.144 50.8559C16.8734 54.5853 21.6249 57.125 26.7978 58.154C31.9706 59.1829 37.3324 58.6548 42.2051 56.6365C47.0778 54.6181 51.2425 51.2002 54.1727 46.8149C57.1029 42.4296 58.6668 37.2738 58.6668 31.9997C58.6668 28.4978 57.9771 25.0301 56.637 21.7948C55.2968 18.5594 53.3326 15.6197 50.8564 13.1435C48.3801 10.6673 45.4404 8.70301 42.2051 7.36289C38.9697 6.02276 35.5021 5.33301 32.0002 5.33301V5.33301ZM43.4668 25.6263L31.2802 41.6263C31.0318 41.949 30.7127 42.2106 30.3475 42.3908C29.9824 42.5711 29.5808 42.6654 29.1735 42.6663C28.7685 42.6685 28.3682 42.5784 28.0032 42.4028C27.6382 42.2272 27.318 41.9708 27.0668 41.653L20.5602 33.3597C20.3448 33.083 20.186 32.7667 20.0929 32.4287C19.9998 32.0906 19.9742 31.7376 20.0175 31.3897C20.0609 31.0418 20.1723 30.7058 20.3455 30.401C20.5187 30.0961 20.7502 29.8284 21.0268 29.613C21.5856 29.1781 22.2942 28.9829 22.9968 29.0704C23.3447 29.1137 23.6807 29.2252 23.9855 29.3983C24.2904 29.5715 24.5581 29.803 24.7735 30.0797L29.1202 35.6263L39.2002 22.293C39.4138 22.0129 39.6805 21.7775 39.9851 21.6004C40.2896 21.4234 40.6261 21.308 40.9752 21.261C41.3244 21.2139 41.6794 21.2361 42.02 21.3262C42.3605 21.4164 42.68 21.5727 42.9602 21.7863C43.2403 22 43.4757 22.2667 43.6527 22.5712C43.8298 22.8758 43.9452 23.2123 43.9922 23.5614C44.0393 23.9106 44.0171 24.2656 43.9269 24.6061C43.8368 24.9467 43.6805 25.2662 43.4668 25.5463V25.6263Z" fill="#17A31A"/>
</svg>
