<svg width="128" height="128" viewBox="0 0 128 128" fill="none" xmlns="http://www.w3.org/2000/svg">
<g clip-path="url(#clip0_49_4955)">
<rect width="128" height="128" fill="#00C7E6"/>
<mask id="mask0_49_4955" style="mask-type:alpha" maskUnits="userSpaceOnUse" x="0" y="0" width="128" height="128">
<path d="M128 0H0V128H128V0Z" fill="white"/>
</mask>
<g mask="url(#mask0_49_4955)">
<path d="M128 0H0V128H128V0Z" fill="#00C7E6"/>
<path d="M25.639 55.7199C22.345 52.3059 20.309 47.6688 20.309 42.5489C20.309 32.0639 28.808 23.5649 39.293 23.5649C44.762 23.5649 49.677 25.8909 53.142 29.5929L54.784 28.0329C50.907 23.8969 45.41 21.2979 39.294 21.2979C27.557 21.2979 18.043 30.8119 18.043 42.5489C18.043 48.2729 20.318 53.4589 23.998 57.2799L25.639 55.7199Z" fill="#EBF2F9"/>
<path d="M100.807 55.8156C104.101 52.4016 106.137 47.7646 106.137 42.6446C106.137 32.1596 97.638 23.6606 87.153 23.6606C81.684 23.6606 76.769 25.9866 73.304 29.6886L71.662 28.1286C75.539 23.9926 81.036 21.3936 87.152 21.3936C98.889 21.3936 108.403 30.9076 108.403 42.6446C108.403 48.3686 106.128 53.5546 102.448 57.3756L100.807 55.8156Z" fill="#EBF2F9"/>
<path d="M100.807 76.0239C104.101 79.4379 106.137 84.0749 106.137 89.1949C106.137 99.6799 97.638 108.179 87.153 108.179C81.684 108.179 76.769 105.853 73.304 102.151L71.662 103.711C75.539 107.847 81.036 110.446 87.152 110.446C98.889 110.446 108.403 100.932 108.403 89.1949C108.403 83.4709 106.128 78.2849 102.448 74.4639L100.807 76.0239Z" fill="#EBF2F9"/>
<path d="M26.772 75.9291C23.478 79.3431 21.442 83.9801 21.442 89.1001C21.442 99.5851 29.941 108.084 40.426 108.084C45.895 108.084 50.81 105.758 54.275 102.056L55.917 103.616C52.04 107.752 46.543 110.351 40.427 110.351C28.69 110.351 19.176 100.837 19.176 89.1001C19.176 83.3761 21.451 78.1901 25.131 74.3691L26.772 75.9291Z" fill="#EBF2F9"/>
<path d="M30.671 32.5583C12.557 50.6723 12.557 80.0403 30.671 98.1543C48.785 116.268 78.153 116.268 96.267 98.1543C114.381 80.0403 114.381 50.6723 96.267 32.5593C78.153 14.4463 48.784 14.4443 30.671 32.5583ZM80.238 82.1253C70.977 91.3863 55.961 91.3863 46.699 82.1253C37.437 72.8643 37.438 57.8483 46.699 48.5863C55.96 39.3253 70.976 39.3253 80.238 48.5863C89.5 57.8473 89.499 72.8643 80.238 82.1253Z" fill="#FF4E4A"/>
<path d="M46.699 82.1251C44.832 80.2581 43.361 78.1511 42.247 75.9111L25.776 92.3821C27.228 94.4021 28.854 96.3371 30.671 98.1531C32.963 100.445 35.437 102.445 38.044 104.157L54.783 87.4181C51.84 86.2611 49.078 84.5041 46.699 82.1251Z" fill="white"/>
<path d="M80.238 48.5871C82.617 50.9661 84.374 53.7271 85.531 56.6711L102.27 39.9321C100.558 37.3251 98.558 34.8511 96.266 32.5591C94.449 30.7421 92.515 29.1171 90.495 27.6641L74.024 44.1341C76.264 45.2481 78.371 46.7201 80.238 48.5871Z" fill="white"/>
<path d="M25.219 39.1284L41.817 55.7264C42.967 53.1394 44.578 50.7084 46.699 48.5874C48.82 46.4664 51.252 44.8554 53.838 43.7054L37.241 27.1074C34.93 28.6954 32.725 30.5044 30.671 32.5584C28.617 34.6124 26.808 36.8174 25.219 39.1284Z" fill="white"/>
<path d="M101.718 91.5833L85.12 74.9863C83.97 77.5733 82.359 80.0043 80.238 82.1253C78.117 84.2463 75.685 85.8573 73.099 87.0073L89.697 103.605C92.008 102.017 94.213 100.208 96.267 98.1543C98.321 96.1003 100.129 93.8943 101.718 91.5833Z" fill="white"/>
<path opacity="0.2" d="M63.469 32.0391C45.069 32.0391 30.153 46.9551 30.153 65.3551C30.153 83.7551 45.069 98.6711 63.469 98.6711C81.869 98.6711 96.785 83.7551 96.785 65.3551C96.785 46.9551 81.869 32.0391 63.469 32.0391ZM80.238 82.1251C70.977 91.3861 55.961 91.3861 46.699 82.1251C37.438 72.8641 37.438 57.8481 46.699 48.5861C55.96 39.3251 70.976 39.3251 80.238 48.5861C89.5 57.8471 89.499 72.8641 80.238 82.1251Z" fill="#C92020"/>
<path opacity="0.07" d="M63.468 29.2764C43.542 29.2764 27.389 45.4294 27.389 65.3554C27.389 85.2814 43.542 101.434 63.468 101.434C83.394 101.434 99.547 85.2814 99.547 65.3554C99.547 45.4294 83.395 29.2764 63.468 29.2764ZM63.469 98.6724C45.069 98.6724 30.153 83.7564 30.153 65.3564C30.153 46.9564 45.069 32.0404 63.469 32.0404C81.869 32.0404 96.785 46.9564 96.785 65.3564C96.785 83.7564 81.869 98.6724 63.469 98.6724Z" fill="white"/>
</g>
</g>
<defs>
<clipPath id="clip0_49_4955">
<rect width="128" height="128" fill="white"/>
</clipPath>
</defs>
</svg>
