<svg width="36" height="36" viewBox="0 0 36 36" fill="none" xmlns="http://www.w3.org/2000/svg">
<rect width="36" height="36" rx="18" fill="black"/>
<path d="M24.179 15.1847H21.9631C21.8778 14.7112 21.7192 14.2945 21.4872 13.9347C21.2552 13.5748 20.9711 13.2694 20.6349 13.0185C20.2988 12.7675 19.9223 12.5781 19.5057 12.4503C19.0938 12.3224 18.6558 12.2585 18.1918 12.2585C17.3537 12.2585 16.6032 12.4692 15.9403 12.8906C15.2822 13.312 14.7614 13.9299 14.3778 14.7443C13.9991 15.5587 13.8097 16.553 13.8097 17.7273C13.8097 18.911 13.9991 19.91 14.3778 20.7244C14.7614 21.5388 15.2846 22.1544 15.9474 22.571C16.6103 22.9877 17.3561 23.196 18.1847 23.196C18.6439 23.196 19.0795 23.1345 19.4915 23.0114C19.9081 22.8835 20.2846 22.6965 20.6207 22.4503C20.9569 22.2041 21.241 21.9034 21.473 21.5483C21.7098 21.1884 21.8731 20.7765 21.9631 20.3125L24.179 20.3196C24.0606 21.0346 23.831 21.6927 23.4901 22.294C23.1539 22.8906 22.7206 23.4067 22.1903 23.8423C21.6648 24.2732 21.0634 24.607 20.3864 24.8438C19.7093 25.0805 18.9706 25.1989 18.1705 25.1989C16.911 25.1989 15.7888 24.9006 14.804 24.304C13.8191 23.7027 13.0426 22.8433 12.4744 21.7259C11.911 20.6084 11.6293 19.2756 11.6293 17.7273C11.6293 16.1742 11.9134 14.8414 12.4815 13.7287C13.0497 12.6113 13.8262 11.7543 14.8111 11.1577C15.7959 10.5563 16.9157 10.2557 18.1705 10.2557C18.9422 10.2557 19.6619 10.367 20.3295 10.5895C21.0019 10.8073 21.6056 11.1293 22.1406 11.5554C22.6757 11.9768 23.1184 12.4929 23.4688 13.1037C23.8191 13.7098 24.0559 14.4034 24.179 15.1847Z" fill="white"/>
</svg>
