<svg width="20" height="17" viewBox="0 0 20 17" fill="none" xmlns="http://www.w3.org/2000/svg">
<path d="M13.989 0.999645L10.922 4.06265C10.5851 4.39898 10.3204 4.8005 10.144 5.24265L10.064 5.46665L9.324 7.76165C9.20255 8.13903 9.18297 8.54181 9.26725 8.9292C9.35152 9.31659 9.53666 9.67483 9.80391 9.96766C10.0712 10.2605 10.411 10.4775 10.7891 10.5967C11.1672 10.716 11.5701 10.7332 11.957 10.6466L12.113 10.6066L14.441 9.90664C14.9144 9.76467 15.3523 9.52406 15.726 9.20065L15.907 9.03164L20 4.94565V13.7546C20 14.1814 19.9159 14.6041 19.7526 14.9984C19.5893 15.3927 19.3499 15.751 19.0481 16.0527C18.7463 16.3545 18.388 16.5939 17.9937 16.7573C17.5994 16.9206 17.1768 17.0046 16.75 17.0046H3.25C2.38805 17.0046 1.5614 16.6622 0.951903 16.0527C0.34241 15.4432 6.97518e-09 14.6166 6.97518e-09 13.7546V9.55465L0.076 9.52365L0.149 9.48265L3.909 7.11965L4.007 7.06765C4.14066 7.00894 4.28854 6.99052 4.43251 7.01464C4.57648 7.03875 4.71029 7.10436 4.81751 7.20342C4.92474 7.30247 5.00073 7.43066 5.03617 7.57228C5.0716 7.71389 5.06494 7.86276 5.017 8.00065L4.971 8.10464L3.763 10.3906L3.693 10.5356C3.50949 10.9529 3.45708 11.4161 3.54269 11.8639C3.6283 12.3117 3.8479 12.7228 4.1724 13.043C4.49691 13.3632 4.91102 13.5772 5.35989 13.6568C5.80875 13.7364 6.2712 13.6777 6.686 13.4886L6.856 13.4026L8.621 12.4066L8.706 12.3496C8.85027 12.2396 8.94974 12.0809 8.98595 11.9031C9.02216 11.7252 8.99266 11.5403 8.90292 11.3826C8.81319 11.2248 8.6693 11.105 8.49793 11.0452C8.32657 10.9855 8.13936 10.9899 7.971 11.0576L7.879 11.1026L6.12 12.0956L6.022 12.1416C5.88762 12.1934 5.7412 12.2053 5.60021 12.1761C5.45922 12.1468 5.32964 12.0776 5.22693 11.9767C5.12422 11.8758 5.05273 11.7474 5.021 11.607C4.98927 11.4665 4.99865 11.3199 5.048 11.1846L5.089 11.0916L6.297 8.80564L6.377 8.63965C6.56009 8.21188 6.60606 7.73787 6.50857 7.28289C6.41109 6.82792 6.17494 6.41435 5.83266 6.09916C5.49037 5.78396 5.05879 5.58264 4.59733 5.52291C4.13588 5.46318 3.66726 5.54798 3.256 5.76565L3.11 5.84965L6.97518e-09 7.80465V4.24965C-5.43467e-05 3.41951 0.317554 2.62082 0.887672 2.01741C1.45779 1.41401 2.23719 1.05164 3.066 1.00465L3.25 0.999645H13.989ZM19.176 0.544645L19.306 0.664645L19.426 0.794645C19.7971 1.22904 19.9908 1.78741 19.9684 2.35833C19.946 2.92925 19.7091 3.47071 19.305 3.87464L15.024 8.14764C14.7609 8.40996 14.4369 8.60304 14.081 8.70965L11.754 9.40965C11.5793 9.46228 11.3935 9.46611 11.2168 9.42072C11.0401 9.37534 10.8791 9.28246 10.7514 9.15217C10.6237 9.02187 10.5341 8.85911 10.4922 8.68151C10.4504 8.50392 10.4579 8.31826 10.514 8.14465L11.254 5.84965C11.363 5.50965 11.552 5.19965 11.805 4.94665L16.095 0.663645C16.4991 0.259704 17.0406 0.0229893 17.6115 0.000745847C18.1824 -0.0214976 18.7407 0.172366 19.175 0.543645" fill="#8A8A8A"/>
</svg>
