<svg width="128" height="128" viewBox="0 0 128 128" fill="none" xmlns="http://www.w3.org/2000/svg">
<g clip-path="url(#clip0_49_4934)">
<mask id="mask0_49_4934" style="mask-type:alpha" maskUnits="userSpaceOnUse" x="0" y="0" width="128" height="128">
<path d="M128 0H0V128H128V0Z" fill="white"/>
</mask>
<g mask="url(#mask0_49_4934)">
<path d="M128 0H0V128H128V0Z" fill="#2684FF"/>
<path d="M25.367 65.294C29.2336 65.294 32.368 62.1595 32.368 58.293C32.368 54.4264 29.2336 51.292 25.367 51.292C21.5005 51.292 18.366 54.4264 18.366 58.293C18.366 62.1595 21.5005 65.294 25.367 65.294Z" fill="#FFBDAE"/>
<path d="M99.974 65.294C103.841 65.294 106.975 62.1595 106.975 58.293C106.975 54.4264 103.841 51.292 99.974 51.292C96.1075 51.292 92.973 54.4264 92.973 58.293C92.973 62.1595 96.1075 65.294 99.974 65.294Z" fill="#FFBDAE"/>
<path d="M62.67 10.6572C42.068 10.6572 25.366 27.3592 25.366 47.9612V57.2802V59.3052V68.6242V85.2642V94.5832V96.6082V105.927H99.974V96.6082V94.5832V85.2642V68.6242V59.3052V57.2802V47.9612C99.974 27.3592 83.273 10.6572 62.67 10.6572Z" fill="white"/>
<path d="M75.894 28.875H49.446C40.368 28.875 32.94 36.303 32.94 45.381V47.043V51.169V55.445C32.94 71.864 46.25 85.175 62.67 85.175C79.089 85.175 92.4 71.865 92.4 55.445V51.169V47.043V45.38C92.4 36.302 84.972 28.875 75.894 28.875Z" fill="#FFBDAD"/>
<path d="M50.532 72.7341C49.741 69.5921 47.339 66.1051 47.339 66.1051L47.324 66.1111C46.996 65.7391 46.531 65.4941 45.996 65.4941C45.008 65.4941 44.207 66.2951 44.207 67.2831C44.207 67.2831 43.791 71.6521 44.623 74.1491C45.456 76.6451 51.13 75.1081 50.532 72.7341Z" fill="white"/>
<path d="M73.735 72.7341C74.526 69.5921 76.928 66.1051 76.928 66.1051L76.943 66.1111C77.271 65.7391 77.736 65.4941 78.271 65.4941C79.259 65.4941 80.06 66.2951 80.06 67.2831C80.06 67.2831 80.476 71.6521 79.644 74.1491C78.812 76.6451 73.138 75.1081 73.735 72.7341Z" fill="white"/>
<path d="M46.17 45.5996V49.8756C46.17 51.9986 47.891 53.7196 50.014 53.7196C52.137 53.7196 53.858 51.9986 53.858 49.8756V45.5996H46.17Z" fill="#403294"/>
<path d="M72.064 45.5996V49.8756C72.064 51.9986 73.785 53.7196 75.908 53.7196C78.031 53.7196 79.752 51.9986 79.752 49.8756V45.5996H72.064Z" fill="#403294"/>
<path d="M68.663 63.9519H57.616C56.09 63.9519 54.842 62.7039 54.842 61.1779V59.1529C54.842 57.6269 56.09 56.3789 57.616 56.3789H68.663C70.189 56.3789 71.437 57.6269 71.437 59.1529V61.1779C71.437 62.7039 70.189 63.9519 68.663 63.9519Z" fill="#FF4E4A"/>
<path d="M62.67 68.1963C54.165 68.1963 46.54 71.1733 41.123 75.8893C46.54 81.5973 54.18 85.1753 62.67 85.1753H62.671C71.162 85.1753 78.801 81.5973 84.218 75.8893C78.801 71.1723 71.175 68.1963 62.67 68.1963Z" fill="#FF8F73"/>
<path d="M81.837 48.7412H43.503C41.665 48.7412 40.161 47.2372 40.161 45.3992V42.9592C40.161 41.1212 41.665 39.6172 43.503 39.6172H81.837C83.675 39.6172 85.179 41.1212 85.179 42.9592V45.3992C85.18 47.2372 83.676 48.7412 81.837 48.7412Z" fill="#FF8F73"/>
<path d="M86.63 10.3317L86.616 10.3337C85.03 13.3387 75.424 15.4097 77.635 12.5687C80.479 8.91367 79.29 1.62667 76.797 4.90267C72.565 10.4637 62.67 10.6447 62.67 10.6447L66.281 17.8797C66.281 17.8797 82.46 20.9947 85.838 18.7227C89.305 16.3917 88.424 11.9757 87.557 10.2997C86.978 9.27267 86.63 10.3317 86.63 10.3317Z" fill="white"/>
<path d="M113 107.5C113 107.5 103.765 86.7725 92 86.7725H74.946H51.355H37.87C26.687 86.7725 20 92.0005 15.509 105.649C11.018 119.298 11.4389 128.74 12.5 130.5C13.5611 132.261 24.7237 127.249 64.016 127.94C100.575 128.584 109.416 141.064 114 132.5C118.584 123.937 113 107.5 113 107.5Z" fill="white"/>
<path d="M63.849 129.94C76.165 129.94 87.653 134.44 97.411 128.408V115.28C97.411 104.759 88.803 96.1514 78.283 96.1514H47.058C36.537 96.1514 27.93 104.759 27.93 115.28V128.893C38.167 135.863 50.529 129.94 63.849 129.94Z" fill="#FFBDAE"/>
<path d="M48.612 121.906C50.9482 121.906 52.842 120.012 52.842 117.676C52.842 115.34 50.9482 113.446 48.612 113.446C46.2759 113.446 44.382 115.34 44.382 117.676C44.382 120.012 46.2759 121.906 48.612 121.906Z" fill="#FF8F73"/>
<path d="M76.482 121.906C78.8182 121.906 80.712 120.012 80.712 117.676C80.712 115.34 78.8182 113.446 76.482 113.446C74.1459 113.446 72.252 115.34 72.252 117.676C72.252 120.012 74.1459 121.906 76.482 121.906Z" fill="#FF8F73"/>
</g>
</g>
<defs>
<clipPath id="clip0_49_4934">
<rect width="128" height="128" fill="white"/>
</clipPath>
</defs>
</svg>
